<svg version="1.1" viewBox="0 0 24 24" xmlns="http://www.w3.org/2000/svg" xmlns:xlink="http://www.w3.org/1999/xlink" x="0px" y="0px">
<path d="M18.0781 17.855C16.2045 17.855 14.4758 16.974 13.3494 15.4238C13.0818 15.0558 13.1599 14.5316 13.5279 14.2528C13.8959 13.974 14.4201 14.0632 14.6989 14.4312C15.513 15.5353 16.7398 16.171 18.0781 16.171C20.4089 16.171 22.316 14.2751 22.316 11.9331C22.316 9.59108 20.4201 7.69517 18.0781 7.69517C16.4944 7.69517 15 8.54275 14.1859 9.89219L11.2305 14.8104C10.1152 16.6729 8.07435 17.8216 5.91078 17.8216C2.65428 17.8216 0 15.1673 0 11.9108C0 8.65428 2.65428 6 5.91078 6C7.78439 6 9.51301 6.88104 10.6394 8.43123C10.9071 8.79926 10.829 9.32342 10.461 9.60223C10.0818 9.88104 9.56877 9.79182 9.28996 9.42379C8.48699 8.34201 7.26022 7.70632 5.92193 7.70632C3.59108 7.70632 1.68401 9.60223 1.68401 11.9442C1.68401 14.2862 3.57993 16.1822 5.92193 16.1822C7.50558 16.1822 9 15.3346 9.81413 13.9851L12.7695 9.06691C13.8848 7.20446 15.9256 6.05576 18.0892 6.05576C21.3457 6.05576 24 8.71004 24 11.9665C24 15.223 21.3346 17.855 18.0781 17.855Z" fill="black"/>
<path d="M5.86591 14.1726C7.09777 14.1726 8.09639 13.174 8.09639 11.9421C8.09639 10.7103 7.09777 9.71166 5.86591 9.71166C4.63405 9.71166 3.63543 10.7103 3.63543 11.9421C3.63543 13.174 4.63405 14.1726 5.86591 14.1726Z" fill="black"/>
<path d="M20.364 11.9421C20.364 13.174 19.3654 14.1726 18.1336 14.1726C16.9017 14.1726 15.9031 13.174 15.9031 11.9421C15.9031 10.7103 16.9017 9.71166 18.1336 9.71166C19.3654 9.71166 20.364 10.7103 20.364 11.9421Z" fill="black"/>
</svg>
