<svg version="1.1" viewBox="0 0 24 24" xmlns="http://www.w3.org/2000/svg" xmlns:xlink="http://www.w3.org/1999/xlink" x="0px" y="0px">
<path d="M20.5193 18.827C21.0285 18.5603 21.5013 18.233 21.9377 17.8451C25.9141 14.3657 23.7925 7.37074 18.5432 6.70397C16.6642 -4.66747 0.24952 -0.339532 4.14102 10.4864H4.08041C-1.27799 10.8622 -1.25374 18.233 3.53487 19.3968C3.95918 19.5059 4.2865 19.0816 4.20164 18.6573C4.09253 18.136 4.03192 17.6026 4.03192 17.0449C4.03192 12.7049 7.57185 9.16495 11.9119 9.16495C16.252 9.16495 19.7919 12.7049 19.7919 17.0449C19.7919 17.4208 19.7677 17.7845 19.7192 18.136C19.6464 18.6209 20.0829 19.0453 20.5193 18.827Z" fill="black"/>
<path fill-rule="evenodd" clip-rule="evenodd" d="M5.93525 17.1904C5.93525 13.8445 8.65081 11.1289 11.9968 11.1289C15.3427 11.1289 18.0583 13.8445 18.0583 17.1904C18.0583 18.0875 17.8643 18.9361 17.5007 19.6878C17.4037 19.906 17.2946 20.1121 17.1733 20.3061C16.1307 22.0639 14.2032 23.252 11.9968 23.252C9.79038 23.252 7.86281 22.0639 6.82023 20.3061C6.699 20.1121 6.58989 19.906 6.49291 19.6878C6.12921 18.9361 5.93525 18.0875 5.93525 17.1904ZM11.924 19.0574L14.5063 16.6691C14.8699 16.3176 14.8942 15.7478 14.5547 15.3841C14.2153 15.0204 13.6455 14.9962 13.2697 15.3356L11.33 17.1298L10.7481 16.5479C10.3965 16.1963 9.81463 16.1963 9.46306 16.5479C9.11149 16.8995 9.11149 17.4814 9.46306 17.8329L10.6632 19.0331C10.8451 19.215 11.0754 19.2998 11.3058 19.2998C11.524 19.2998 11.7543 19.215 11.924 19.0574Z" fill="black"/>
</svg>
