<svg version="1.1" viewBox="0 0 24 24" xmlns="http://www.w3.org/2000/svg" xmlns:xlink="http://www.w3.org/1999/xlink" x="0px" y="0px">
<path d="M17.0365 0H6.97548C2.6053 0 0 2.604 0 6.972V17.016C0 21.396 2.6053 24 6.97548 24H17.0245C21.3947 24 24 21.396 24 17.028V6.972C24.012 2.604 21.4067 0 17.0365 0ZM10.7934 18C10.7934 18.12 10.7694 18.228 10.7213 18.348C10.6253 18.564 10.4572 18.744 10.2291 18.84C10.121 18.888 10.001 18.912 9.88092 18.912C9.76086 18.912 9.65281 18.888 9.53275 18.84C9.4247 18.792 9.32865 18.732 9.24461 18.648L5.70284 15.108C5.35467 14.76 5.35467 14.184 5.70284 13.836C6.05101 13.488 6.6273 13.488 6.97548 13.836L8.98047 15.84V6C8.98047 5.508 9.38868 5.1 9.88092 5.1C10.3732 5.1 10.7934 5.508 10.7934 6V18ZM18.2971 10.176C18.117 10.356 17.8889 10.44 17.6608 10.44C17.4327 10.44 17.2046 10.356 17.0245 10.176L15.0195 8.172V18C15.0195 18.492 14.6113 18.9 14.119 18.9C13.6268 18.9 13.2186 18.492 13.2186 18V6C13.2186 5.88 13.2426 5.772 13.2906 5.652C13.3867 5.436 13.5548 5.256 13.7829 5.16C13.999 5.064 14.2511 5.064 14.4672 5.16C14.5753 5.208 14.6713 5.268 14.7554 5.352L18.2971 8.892C18.6453 9.252 18.6453 9.828 18.2971 10.176Z" fill="black"/>
</svg>
