<svg version="1.1" viewBox="0 0 24 24" xmlns="http://www.w3.org/2000/svg" xmlns:xlink="http://www.w3.org/1999/xlink" x="0px" y="0px">
<path fill-rule="evenodd" clip-rule="evenodd" d="M4.93565 3H11.8861C14.7925 3 16.8218 5.00284 16.8218 7.8731V16.1269C16.8218 18.9972 14.7925 21 11.8861 21H4.93565C2.02922 21 0 18.9972 0 16.1269V7.8731C0 5.00284 2.02922 3 4.93565 3ZM21.5495 5.85455C22.0763 5.58653 22.6943 5.61455 23.1971 5.9313C23.6999 6.24683 23.9999 6.79506 23.9999 7.39445V16.6058C23.9999 17.2064 23.6999 17.7534 23.1971 18.069C22.9223 18.2407 22.6151 18.3285 22.3055 18.3285C22.0475 18.3285 21.7895 18.2675 21.5483 18.1445L19.7711 17.2478C19.1135 16.914 18.7055 16.244 18.7055 15.4996V8.49942C18.7055 7.75384 19.1135 7.08379 19.7711 6.75242L21.5495 5.85455Z" fill="black"/>
</svg>
