<svg version="1.1" viewBox="0 0 24 24" xmlns="http://www.w3.org/2000/svg" xmlns:xlink="http://www.w3.org/1999/xlink" x="0px" y="0px">
<path d="M21.7445 3.89156C22.2114 3.89156 22.6 4.27916 22.6 4.77235V5.22835C22.6 5.70954 22.2114 6.10914 21.7445 6.10914H1.85662C1.38863 6.10914 1 5.70954 1 5.22835V4.77235C1 4.27916 1.38863 3.89156 1.85662 3.89156H5.35548C6.06622 3.89156 6.68476 3.38637 6.84465 2.67357L7.02788 1.85518C7.31264 0.740393 8.24979 0 9.32233 0H14.2777C15.3385 0 16.2862 0.740393 16.5604 1.79638L16.7565 2.67237C16.9152 3.38637 17.5338 3.89156 18.2457 3.89156H21.7445Z" fill="black"/>
<path d="M19.967 20.5608C20.3323 17.1565 20.9718 9.06856 20.9718 8.98696C20.9952 8.73977 20.9146 8.50577 20.7548 8.31737C20.5832 8.14097 20.3661 8.03657 20.1269 8.03657H3.48222C3.24181 8.03657 3.01306 8.14097 2.85434 8.31737C2.69329 8.50577 2.61393 8.73977 2.6256 8.98696C2.62774 9.00196 2.65069 9.28686 2.68906 9.76316C2.8595 11.8791 3.3342 17.7722 3.64094 20.5608C3.85802 22.6152 5.20598 23.9064 7.15847 23.9532C8.66515 23.988 10.2173 24 11.8046 24C13.2996 24 14.8179 23.988 16.3713 23.9532C18.3915 23.9184 19.7382 22.65 19.967 20.5608Z" fill="black"/>
</svg>
