<svg version="1.1" viewBox="0 0 24 24" xmlns="http://www.w3.org/2000/svg" xmlns:xlink="http://www.w3.org/1999/xlink" x="0px" y="0px">
<path d="M12.0005 0C5.38849 0 0.000488281 5.388 0.000488281 12C0.000488281 18.612 5.38849 24 12.0005 24C18.6125 24 24.0005 18.612 24.0005 12C24.0005 5.388 18.6125 0 12.0005 0ZM17.7365 9.24L10.9325 16.044C10.7645 16.212 10.5365 16.308 10.2965 16.308C10.0565 16.308 9.82849 16.212 9.66049 16.044L6.26449 12.648C5.91649 12.3 5.91649 11.724 6.26449 11.376C6.61249 11.028 7.18849 11.028 7.53649 11.376L10.2965 14.136L16.4645 7.968C16.8125 7.62 17.3885 7.62 17.7365 7.968C18.0845 8.316 18.0845 8.88 17.7365 9.24Z" fill="black"/>
</svg>
