<svg version="1.1" viewBox="0 0 24 24" xmlns="http://www.w3.org/2000/svg" xmlns:xlink="http://www.w3.org/1999/xlink" x="0px" y="0px">
<path d="M8.4 24H15.6C17.592 24 19.2 22.392 19.2 20.4V3.6C19.2 1.608 17.592 0 15.6 0H8.4C6.408 0 4.8 1.608 4.8 3.6V20.4C4.8 22.392 6.408 24 8.4 24Z" fill="black"/>
<path d="M3 4.71596V19.284C3 19.668 2.652 19.944 2.28 19.872C0.504 19.548 0 18.516 0 15.996V8.00396C0 5.48396 0.504 4.45196 2.28 4.12796C2.652 4.05596 3 4.33196 3 4.71596Z" fill="black"/>
<path d="M24 15.996V8.00396C24 5.48396 23.496 4.45196 21.72 4.12796C21.348 4.05596 21 4.33196 21 4.71596V19.284C21 19.656 21.348 19.944 21.72 19.872C23.496 19.548 24 18.516 24 15.996Z" fill="black"/>
</svg>
