<svg version="1.1" viewBox="0 0 24 24" xmlns="http://www.w3.org/2000/svg" xmlns:xlink="http://www.w3.org/1999/xlink" x="0px" y="0px">
<path d="M16.9442 16.3682L22.9454 10.367C24.3497 8.96275 24.3497 6.6703 22.9454 5.26603L18.7206 1.05321C17.3163 -0.351069 15.0118 -0.351069 13.6076 1.05321L7.60639 7.04238C7.1383 7.52247 7.1383 8.27862 7.60639 8.74671L15.2519 16.3682C15.72 16.8363 16.4761 16.8363 16.9442 16.3682Z" fill="black"/>
<path d="M13.9684 17.626C14.4365 18.0941 14.4365 18.8502 13.9684 19.3303L10.3917 22.907C9.05942 24.2393 6.92301 24.3113 5.50673 23.1231C5.42273 23.0511 5.35072 22.9791 5.27872 22.9071L1.05386 18.6822C0.969845 18.5982 0.897831 18.5142 0.825817 18.4302C-0.350413 17.0139 -0.266397 14.9015 1.05386 13.5812L4.63056 10.0045C5.09865 9.53643 5.8548 9.53643 6.32289 10.0045L13.9684 17.626Z" fill="black"/>
<path d="M22.8384 24H14.3887C13.8846 24 13.4886 23.5919 13.4886 23.0998C13.4886 22.6077 13.8967 22.1996 14.3887 22.1996H22.8384C23.3425 22.1996 23.7386 22.6077 23.7386 23.0998C23.7386 23.5919 23.3425 24 22.8384 24Z" fill="black"/>
</svg>
