<svg version="1.1" viewBox="0 0 24 24" xmlns="http://www.w3.org/2000/svg" xmlns:xlink="http://www.w3.org/1999/xlink" x="0px" y="0px">
<path fill-rule="evenodd" clip-rule="evenodd" d="M13.7399 3.45618H17.4239C21.8518 3.45618 24.0118 5.82016 23.9998 10.6681V16.5121C23.9998 21.144 21.1438 24 16.4999 24H7.48794C2.86798 24 0 21.144 0 16.5001V7.48814C0 2.52018 2.20798 0.000204791 6.56394 0.000204791H8.45993C9.57712 -0.0117951 10.6199 0.504201 11.3039 1.38019L12.3599 2.78418C12.6959 3.20418 13.1999 3.45618 13.7399 3.45618ZM6.44394 15.9481H17.5558C18.0478 15.9481 18.4438 15.5401 18.4438 15.0481C18.4438 14.5441 18.0478 14.1481 17.5558 14.1481H6.44394C5.93994 14.1481 5.54395 14.5441 5.54395 15.0481C5.54395 15.5401 5.93994 15.9481 6.44394 15.9481Z" fill="black"/>
</svg>
