<svg version="1.1" viewBox="0 0 24 24" xmlns="http://www.w3.org/2000/svg" xmlns:xlink="http://www.w3.org/1999/xlink" x="0px" y="0px">
<path fill-rule="evenodd" clip-rule="evenodd" d="M17.208 0H6.804C2.736 0 0 2.856 0 7.104V16.908C0 21.144 2.736 24 6.804 24H17.208C21.276 24 24 21.144 24 16.908V7.104C24 2.856 21.276 0 17.208 0ZM16.066 13.048H13.042L10.948 13.058L7.936 13.048C7.648 13.048 7.384 12.936 7.188 12.742C7.002 12.554 6.884 12.284 6.884 11.996C6.882 11.42 7.35 10.952 7.934 10.942L10.948 10.952L13.052 10.95L16.064 10.942C16.65 10.95 17.118 11.416 17.116 11.996C17.116 12.574 16.64 13.048 16.066 13.048Z" fill="black"/>
</svg>
