<svg version="1.1" viewBox="0 0 24 24" xmlns="http://www.w3.org/2000/svg" xmlns:xlink="http://www.w3.org/1999/xlink" x="0px" y="0px">
<path d="M14.6237 15.6034H21.6054C23.2458 15.6034 24.4061 13.983 23.866 12.4226L20.8452 3.50037C20.5451 2.60015 19.7049 2 18.7447 2H11.823C10.4426 2 9.08227 2.20005 7.76194 2.62015L6.8217 2.92023C6.66166 2.98024 6.54163 3.12028 6.54163 3.30032V13.3628C6.54163 13.5029 6.60165 13.6229 6.72168 13.7029C7.50187 14.2231 10.5826 16.5436 10.9227 21.1848C10.9427 21.5249 11.1028 21.865 11.3628 22.085C11.843 22.5251 12.7432 22.9652 14.1435 22.205C16.184 21.0848 14.7637 16.3436 14.5636 15.6834C14.5636 15.6434 14.5836 15.6034 14.6237 15.6034Z" fill="black"/>
<path fill-rule="evenodd" clip-rule="evenodd" d="M5.2013 3.2003V13.6029C5.2013 14.163 4.76119 14.6031 4.20105 14.6031H1.00025C0.44011 14.6031 0 14.163 0 13.6029V3.2003C0 2.64016 0.44011 2.20005 1.00025 2.20005H4.20105C4.76119 2.20005 5.2013 2.64016 5.2013 3.2003ZM3.00075 5.80095C3.44086 5.80095 3.80095 5.44086 3.80095 5.00075C3.80095 4.56064 3.44086 4.20055 3.00075 4.20055C2.56064 4.20055 2.20055 4.56064 2.20055 5.00075C2.20055 5.44086 2.56064 5.80095 3.00075 5.80095Z" fill="black"/>
</svg>
