<svg version="1.1" viewBox="0 0 24 24" xmlns="http://www.w3.org/2000/svg" xmlns:xlink="http://www.w3.org/1999/xlink" x="0px" y="0px">
<path fill-rule="evenodd" clip-rule="evenodd" d="M18.2772 4.45722C20.6935 4.45722 22.3591 5.00851 23.3561 6.11109C24.4586 7.33096 24.4821 8.94964 24.3883 10.1343C24.3827 10.1733 24.3798 10.207 24.377 10.2392C24.3739 10.2748 24.371 10.3085 24.3648 10.3455L24.3062 10.8967L24.2834 11.1017C24.268 11.2403 24.1957 11.3663 24.0828 11.448C23.6346 11.7725 23.1402 12.1055 22.664 12.3747C22.6445 12.3864 22.6262 12.3981 22.608 12.4099C22.5715 12.4333 22.535 12.4568 22.4881 12.4802C20.4002 13.7001 18.0895 14.5329 15.6967 14.92C15.6146 16.0577 15.1102 17.3363 12.5414 17.3363C9.97266 17.3363 9.49175 16.046 9.38619 14.9434C7.14585 14.5798 4.94069 13.8409 2.93494 12.7383C2.75901 12.6444 2.58305 12.5506 2.41884 12.445C2.12482 12.2817 1.62606 11.9591 1.35024 11.7782C1.22442 11.6957 1.14377 11.5605 1.12951 11.4107L1.03476 10.4158L1.02303 10.3337C0.905733 9.14904 0.870545 7.41307 2.03177 6.12282C3.02878 5.02024 4.68264 4.46895 7.11066 4.46895H7.39217V4.41031C7.39217 2.45147 7.39217 0 11.8025 0H13.5854C17.9957 0 17.9957 2.43974 17.9957 4.41031V4.45722H18.2772ZM12.5297 15.5768C13.9724 15.5768 13.9724 15.3892 13.9724 14.1458V12.6796H11.087V14.1576C11.087 15.354 11.087 15.5768 12.5297 15.5768ZM9.06949 4.41031V4.46895H16.3183V4.41031C16.3183 2.42801 16.3183 1.67732 13.5854 1.67732H11.8025C9.06949 1.67732 9.06949 2.41628 9.06949 4.41031Z" fill="black"/>
<path d="M23.9657 14.4691C24.0011 14.0792 23.5948 13.7987 23.2415 13.9676C21.8738 14.6218 19.0833 15.9073 17.4138 16.3366C17.2492 16.379 17.1155 16.4966 17.0453 16.6514C16.3403 18.2048 14.7682 19.0619 12.5401 19.0619C10.2897 19.0619 8.73763 18.2365 8.0347 16.6864C7.96455 16.5317 7.83126 16.4141 7.66672 16.3719C6.09302 15.9687 3.46536 14.8163 2.15509 14.2205C1.80275 14.0603 1.40606 14.3407 1.4411 14.7261L1.85445 19.273C2.10077 21.6072 3.06259 24 8.22359 24H17.1615C22.3225 24 23.2843 21.6072 23.5306 19.2613L23.9657 14.4691Z" fill="black"/>
</svg>
