<svg version="1.1" viewBox="0 0 24 24" xmlns="http://www.w3.org/2000/svg" xmlns:xlink="http://www.w3.org/1999/xlink" x="0px" y="0px">
<path fill-rule="evenodd" clip-rule="evenodd" d="M19.9151 7.46H24.9951C24.9951 3.38 22.5551 1 18.4151 1H7.57512C3.43512 1 0.995117 3.38 0.995117 7.4V16.2C0.995117 20.22 3.43512 22.6 7.57512 22.6H18.4151C22.5551 22.6 24.9951 20.22 24.9951 16.2V15.82H19.9151C17.5551 15.82 15.6551 13.96 15.6551 11.66C15.6551 9.36 17.5751 7.5 19.9151 7.5V7.46ZM19.9151 9.24H24.0951C24.5951 9.24 24.9951 9.64 24.9951 10.12V13.16C24.9951 13.64 24.5951 14.02 24.0951 14.04H20.0151C18.8151 14.06 17.7751 13.26 17.5151 12.12C17.3751 11.42 17.5751 10.7 18.0351 10.14C18.4951 9.58 19.1751 9.26 19.9151 9.24ZM20.0951 12.44H20.4951C20.9951 12.44 21.4151 12.04 21.4151 11.54C21.4151 11.04 20.9951 10.64 20.4951 10.64H20.0951C19.8551 10.64 19.6151 10.72 19.4551 10.9C19.2751 11.06 19.1951 11.3 19.1951 11.52C19.1751 12.04 19.5951 12.44 20.0951 12.44ZM6.67512 7.46H13.4551C13.9551 7.46 14.3751 7.06 14.3751 6.56C14.3751 6.06 13.9551 5.66 13.4551 5.66H6.67512C6.17512 5.66 5.75512 6.06 5.75512 6.54C5.75512 7.04 6.17512 7.46 6.67512 7.46Z" fill="black"/>
</svg>
