<svg version="1.1" viewBox="0 0 24 24" xmlns="http://www.w3.org/2000/svg" xmlns:xlink="http://www.w3.org/1999/xlink" x="0px" y="0px">
<path fill-rule="evenodd" clip-rule="evenodd" d="M20.4281 2.66182H3.77207C3.28007 2.66182 2.87207 2.25382 2.87207 1.76182C2.87207 1.26982 3.28007 0.861816 3.77207 0.861816H20.4281C20.9201 0.861816 21.3281 1.26982 21.3281 1.76182C21.3281 2.25382 20.9201 2.66182 20.4281 2.66182ZM20.4281 24.8618H3.77207C3.28007 24.8618 2.87207 24.4538 2.87207 23.9618C2.87207 23.4698 3.28007 23.0618 3.77207 23.0618H20.4281C20.9201 23.0618 21.3281 23.4698 21.3281 23.9618C21.3281 24.4538 20.9201 24.8618 20.4281 24.8618ZM1 17.6618V8.06182C1 6.06982 2.608 4.46182 4.6 4.46182H19.6C21.592 4.46182 23.2 6.06982 23.2 8.06182V17.6618C23.2 19.6538 21.592 21.2618 19.6 21.2618H4.6C2.608 21.2618 1 19.6538 1 17.6618Z" fill="black"/>
</svg>
