<svg version="1.1" viewBox="0 0 24 24" xmlns="http://www.w3.org/2000/svg" xmlns:xlink="http://www.w3.org/1999/xlink" x="0px" y="0px">
<path d="M19.2801 5.07848V4.19005C19.2801 1.48873 17.8034 0 15.1021 0H9.50737C6.80606 0 5.32933 1.48873 5.32933 4.19005V5.09048L9.57941 2.61728C11.1762 1.69283 13.4213 1.69283 15.0301 2.61728L19.2801 5.07848Z" fill="black"/>
<path fill-rule="evenodd" clip-rule="evenodd" d="M19.1479 7.08365L19.316 7.16769C21.465 8.6204 21.6091 8.88452 21.6091 11.1536V16.5803C21.6091 18.8614 21.477 19.1135 19.364 20.5302L14.1294 23.5557C13.6132 23.8558 12.9529 23.9999 12.3045 23.9999C11.6442 23.9999 10.9959 23.8678 10.4797 23.5557L5.29312 20.5662C3.14407 19.1135 3 18.8494 3 16.5803V11.1536C3 8.88452 3.14407 8.6204 5.2451 7.2037L5.4612 7.09565L7.094 6.13518L10.4797 4.19023C11.5122 3.58994 13.0969 3.58994 14.1294 4.19023L17.5151 6.14719L19.1479 7.08365ZM14.9218 14.7074L15.6542 13.8069C16.1104 13.2667 15.9063 12.6664 15.222 12.4863L14.1054 12.1981C13.9373 12.1501 13.7212 11.994 13.6252 11.838L13.0009 10.8775C12.6047 10.2772 11.9924 10.2772 11.6082 10.8775L10.9839 11.838C10.8879 11.982 10.6838 12.1501 10.5037 12.1981L9.38712 12.4863C8.70278 12.6664 8.49868 13.2667 8.95491 13.8069L9.69927 14.6954C9.81933 14.8274 9.90337 15.0795 9.89136 15.2596L9.81933 16.4122C9.77131 17.1205 10.2756 17.4927 10.9359 17.2286L12.0044 16.8084C12.1725 16.7484 12.4486 16.7484 12.6167 16.8084L13.6852 17.2406C14.3455 17.4927 14.8498 17.1326 14.8018 16.4242L14.7297 15.2716C14.7177 15.0916 14.8018 14.8394 14.9218 14.7074Z" fill="black"/>
</svg>
