<svg version="1.1" viewBox="0 0 24 24" xmlns="http://www.w3.org/2000/svg" xmlns:xlink="http://www.w3.org/1999/xlink" x="0px" y="0px">
<path fill-rule="evenodd" clip-rule="evenodd" d="M8.50286 8.41379C7.54286 9.24138 6.30857 9.51724 4.8 9.51724C3.29143 9.51724 2.05714 9.37931 1.09714 8.55172C0.274286 7.58621 0 6.34483 0 4.82759C0 3.31034 0.274286 2.06897 1.09714 1.10345C2.05714 0.275862 3.29143 0 4.8 0C6.17143 0 7.54286 0.275862 8.50286 0.965517C9.32571 1.93103 9.6 3.17241 9.6 4.68966C9.6 6.2069 9.32571 7.58621 8.50286 8.41379ZM22.9028 3.72412C23.5886 3.72412 24 4.27585 24 4.82757C24 5.37929 23.4514 5.79309 22.9028 5.93102H13.9886C13.44 5.93102 13.0286 5.37929 13.0286 4.82757C13.0286 4.13791 13.44 3.72412 13.9886 3.72412H22.9028ZM22.9029 15.5862C22.08 14.7587 20.7086 14.4828 19.2 14.4828C17.6915 14.4828 16.4572 14.7587 15.4972 15.5862C14.6743 16.4138 14.4 17.7931 14.4 19.3104C14.4 20.8276 14.6743 22.069 15.4972 23.0345C16.32 23.8621 17.6915 24.138 19.2 24.138C20.7086 24.138 21.9429 23.8621 22.9029 23.0345C23.7257 22.2069 24 20.8276 24 19.3104C24 17.7931 23.7257 16.5518 22.9029 15.5862ZM1.09714 18.2069H9.87429C10.4229 18.2069 10.9714 18.7586 10.9714 19.3104C10.9714 19.8621 10.4229 20.2759 10.0114 20.4138H1.09714C0.411429 20.4138 0 20 0 19.3104C0 18.6207 0.411429 18.2069 1.09714 18.2069Z" fill="black"/>
</svg>
