<svg version="1.1" viewBox="0 0 24 24" xmlns="http://www.w3.org/2000/svg" xmlns:xlink="http://www.w3.org/1999/xlink" x="0px" y="0px">
<path fill-rule="evenodd" clip-rule="evenodd" d="M9.66686 0.170488L15.2941 1.05836C19.0615 1.64628 20.8253 3.18205 20.9812 6.18162C21.0292 6.91351 20.9692 7.74139 20.8253 8.66526L19.9494 14.2924C19.2055 18.9838 17.0338 20.5675 12.3425 19.8356L6.71529 18.9478C5.09552 18.6958 3.8477 18.2639 2.93584 17.616C1.19609 16.4041 0.692159 14.4124 1.17209 11.3409L2.05996 5.71369C2.80385 1.02237 4.97554 -0.561406 9.66686 0.170488ZM5.9714 6.2896C5.9714 7.6814 7.11123 8.82124 8.51503 8.82124C9.90683 8.82124 11.0467 7.6814 11.0467 6.2896C11.0467 4.88581 9.90683 3.74597 8.51503 3.74597C7.11123 3.74597 5.9714 4.88581 5.9714 6.2896Z" fill="black"/>
<path d="M21.4259 19.1762L23.2257 13.765C24.2695 10.6095 24.0056 8.47378 22.1818 6.97399C22.1818 7.53791 22.1338 8.14982 22.0138 8.84572L21.138 14.4729C20.4061 19.0682 18.2824 21.2039 14.323 21.2039C13.651 21.2039 12.9312 21.1439 12.1633 21.024L6.52408 20.1361C5.52822 19.9801 4.65235 19.7521 3.89646 19.4522C4.68834 20.3281 5.91217 21.024 7.60392 21.5879L13.0151 23.3876C17.5265 24.8874 19.9261 23.6876 21.4259 19.1762Z" fill="black"/>
</svg>
