<svg version="1.1" viewBox="0 0 24 24" xmlns="http://www.w3.org/2000/svg" xmlns:xlink="http://www.w3.org/1999/xlink" x="0px" y="0px">
<path d="M15.0529 1.72325L17.1681 5.95354C17.4531 6.53858 18.2181 7.09361 18.8632 7.21362L22.6884 7.84367C25.1336 8.24869 25.7036 10.0188 23.9485 11.7889L20.9633 14.7741C20.4683 15.2692 20.1833 16.2442 20.3483 16.9493L21.2033 20.6395C21.8784 23.5497 20.3183 24.6898 17.7531 23.1597L14.1679 21.0296C13.5228 20.6395 12.4427 20.6395 11.7977 21.0296L8.21245 23.1597C5.64727 24.6748 4.08717 23.5497 4.76221 20.6395L5.61727 16.9493C5.75228 16.2292 5.46726 15.2542 4.97223 14.7591L1.98702 11.7739C0.231904 10.0188 0.801943 8.24869 3.24711 7.82866L7.07237 7.19862C7.71742 7.09361 8.48247 6.52358 8.76749 5.93854L10.8826 1.70825C12.0377 -0.57191 13.8978 -0.571909 15.0529 1.72325Z" fill="black"/>
</svg>
