<svg version="1.1" viewBox="0 0 24 24" xmlns="http://www.w3.org/2000/svg" xmlns:xlink="http://www.w3.org/1999/xlink" x="0px" y="0px">
<path d="M22.1773 7.7127L16.2902 1.81726C15.0556 0.580912 13.3531 -0.082813 11.6116 0.00828656L5.11368 0.320628C2.5145 0.437756 0.448149 2.50702 0.31819 5.09685L0.00628804 11.604C-0.0716875 13.3479 0.578108 15.0527 1.81272 16.2891L7.69987 22.1845C10.1171 24.6052 14.0419 24.6052 16.4721 22.1845L22.1773 16.4713C24.6076 14.0636 24.6076 10.1333 22.1773 7.7127ZM8.75254 12.5019C6.69918 12.5019 5.00972 10.8231 5.00972 8.75384C5.00972 6.68458 6.69918 5.00575 8.75254 5.00575C10.8059 5.00575 12.4954 6.68458 12.4954 8.75384C12.4954 10.8231 10.8059 12.5019 8.75254 12.5019ZM19.1883 13.9986L13.9899 19.2043C13.795 19.3995 13.548 19.4906 13.3011 19.4906C13.0542 19.4906 12.8073 19.3995 12.6123 19.2043C12.2354 18.8268 12.2354 18.2022 12.6123 17.8248L17.8107 12.6191C18.1876 12.2417 18.8114 12.2417 19.1883 12.6191C19.5651 12.9965 19.5651 13.6212 19.1883 13.9986Z" fill="black"/>
</svg>
