<svg version="1.1" viewBox="0 0 24 24" xmlns="http://www.w3.org/2000/svg" xmlns:xlink="http://www.w3.org/1999/xlink" x="0px" y="0px">
<path fill-rule="evenodd" clip-rule="evenodd" d="M16.2285 1.38248L18.2337 1.85075C23.2647 3.02745 24.8016 5.51292 23.6249 10.5319L22.4482 15.5508C21.4396 19.8854 19.4465 21.6384 15.7002 21.2782C15.0999 21.2302 14.4515 21.1221 13.7551 20.954L11.7379 20.4738C6.73094 19.285 5.18203 16.8116 6.35872 11.7926L7.53542 6.76165C7.77556 5.74105 8.06373 4.85253 8.42394 4.12009C9.82877 1.21438 12.2182 0.433918 16.2285 1.38248ZM15.0999 14.6743C15.5081 14.6743 15.8683 14.4102 15.9764 14.0019C16.0965 13.5216 15.8083 13.0294 15.316 12.9093L11.8219 12.0208C11.3417 11.9007 10.8494 12.1889 10.7293 12.6691C10.6092 13.1494 10.8974 13.6417 11.3777 13.7618L14.8717 14.6503C14.8824 14.6518 14.8929 14.6534 14.9032 14.6549C14.9741 14.6652 15.037 14.6743 15.0999 14.6743ZM18.618 10.6159C19.0262 10.6159 19.3864 10.3518 19.4945 9.94353C19.6145 9.45124 19.3264 8.95895 18.8341 8.85089L13.0106 7.37402C12.5304 7.25395 12.0381 7.54212 11.918 8.0224C11.7979 8.50268 12.0861 8.99497 12.5664 9.11504L18.3898 10.5919C18.4005 10.5934 18.411 10.595 18.4213 10.5965C18.4922 10.6068 18.5551 10.6159 18.618 10.6159Z" fill="black"/>
<path d="M12.8764 22.579C13.1977 22.4719 13.1675 22.0398 12.8376 21.9631L11.4596 21.6424C5.80424 20.2976 3.8711 17.1758 5.19188 11.5205L6.36858 6.48949C6.45089 6.14927 6.53571 5.8266 6.62533 5.52149C6.74493 5.11431 6.35579 4.71137 5.95293 4.84479L5.11984 5.12068C0.353024 6.65759 -0.919728 9.17908 0.61718 13.9459L2.15409 18.6887C3.703 23.4555 6.21248 24.7403 10.9793 23.2034L12.8764 22.579Z" fill="black"/>
</svg>
