<svg version="1.1" viewBox="0 0 24 24" xmlns="http://www.w3.org/2000/svg" xmlns:xlink="http://www.w3.org/1999/xlink" x="0px" y="0px">
<path d="M4.72 9.89176C4.72 6.97419 7.1 4.59617 10.02 4.59617C10.46 4.59617 10.82 4.95587 10.82 5.3955C10.82 5.83514 10.46 6.19484 10.02 6.19484C7.98 6.19484 6.32 7.85346 6.32 9.89176C6.32 10.3314 5.96 10.6911 5.52 10.6911C5.08 10.6911 4.72 10.3314 4.72 9.89176Z" fill="black"/>
<path fill-rule="evenodd" clip-rule="evenodd" d="M18.88 16.8659L23.58 21.5221C24.14 22.1016 24.14 23.0008 23.58 23.5803C23.3 23.8601 22.92 24 22.56 24C22.2 24 21.82 23.8601 21.54 23.5803L16.8 18.8843C15.04 20.1432 12.9 20.9026 10.56 20.9026C4.74 20.9026 0 16.2065 0 10.4513C0 4.69609 4.74 0 10.56 0C16.38 0 21.1 4.69609 21.12 10.4513C21.12 12.8693 20.28 15.0874 18.88 16.8659ZM2.9 10.4513C2.9 14.6278 6.34 18.025 10.56 18.025C14.78 18.025 18.22 14.6278 18.22 10.4513C18.22 6.27477 14.78 2.8776 10.56 2.8776C6.34 2.8776 2.9 6.27477 2.9 10.4513Z" fill="black"/>
</svg>
