<svg version="1.1" viewBox="0 0 24 24" xmlns="http://www.w3.org/2000/svg" xmlns:xlink="http://www.w3.org/1999/xlink" x="0px" y="0px">
<path d="M1.29524 18.9058C1.09516 18.6857 0.995117 18.4256 0.995117 18.1255C0.995117 17.9054 1.03513 17.7053 1.09516 17.5252L5.35693 6.54064C5.57703 6.06044 5.83713 5.68028 6.15727 5.40017C6.45739 5.14006 6.89758 5 7.45781 5H11.4795C11.8196 5 12.0797 5.14006 12.2798 5.38016C12.4799 5.64027 12.5599 5.94039 12.5199 6.26053L10.7992 17.3051C10.6792 17.8654 10.4591 18.3256 10.1389 18.6857C9.81879 19.0459 9.3586 19.2459 8.75835 19.2459H2.03555C1.73543 19.2459 1.49533 19.1259 1.29524 18.9058ZM13.7604 18.9058C13.5604 18.6857 13.4603 18.4256 13.4603 18.1255C13.4603 17.9054 13.5003 17.7053 13.5604 17.5252L17.8221 6.54064C18.0422 6.06044 18.3023 5.68028 18.6225 5.40017C18.9426 5.14006 19.3628 5 19.923 5H23.9447C24.2848 5 24.5449 5.14006 24.745 5.38016C24.9451 5.64027 25.0251 5.94039 24.9851 6.26053L23.2644 17.3051C23.1443 17.8654 22.9243 18.3256 22.6041 18.6857C22.264 19.0459 21.8038 19.2459 21.2235 19.2459H14.5208C14.2206 19.2459 13.9605 19.1259 13.7604 18.9058Z" fill="black"/>
</svg>
