<svg version="1.1" viewBox="0 0 24 24" xmlns="http://www.w3.org/2000/svg" xmlns:xlink="http://www.w3.org/1999/xlink" x="0px" y="0px">
<path d="M19.9771 14C18.5971 14 17.3571 14.56 16.4571 15.46L10.9371 12.68C10.9771 12.46 10.9771 12.22 10.9771 12C10.9771 11.78 10.9571 11.54 10.9371 11.32L16.4571 8.56C17.3571 9.44 18.5971 10 19.9771 10C22.7371 10 24.9771 7.76 24.9771 5C24.9771 2.24 22.7371 0 19.9771 0C17.2171 0 14.9771 2.24 14.9771 5C14.9771 5.24 14.9971 5.46 15.0171 5.68L9.49705 8.46C8.59705 7.56 7.35705 7 5.97705 7C3.21705 7 0.977051 9.24 0.977051 12C0.977051 14.76 3.21705 17 5.97705 17C7.35705 17 8.59705 16.44 9.49705 15.54L15.0171 18.3C14.9971 18.54 14.9771 18.76 14.9771 19C14.9771 21.76 17.2171 24 19.9771 24C22.7371 24 24.9771 21.76 24.9771 19C24.9771 16.24 22.7371 14 19.9771 14Z" fill="black"/>
</svg>
