<svg version="1.1" viewBox="0 0 24 24" xmlns="http://www.w3.org/2000/svg" xmlns:xlink="http://www.w3.org/1999/xlink" x="0px" y="0px">
<path fill-rule="evenodd" clip-rule="evenodd" d="M19.7146 5.65942C21.4123 7.21888 22.8525 9.32179 23.9298 11.85C24.0234 12.0745 24.0234 12.3344 23.9298 12.547C21.4241 18.4305 16.963 21.9511 11.9984 21.9511H11.9867C9.72691 21.9511 7.56077 21.2068 5.65223 19.8482L3.38071 22.1401C3.20507 22.3173 2.9826 22.4 2.76014 22.4C2.53767 22.4 2.30349 22.3173 2.13957 22.1401C1.84685 21.8447 1.80001 21.3722 2.03419 21.0296L2.06931 20.9823L19.3867 3.50925C19.4101 3.48562 19.4336 3.462 19.4453 3.43837C19.4687 3.41474 19.4921 3.39111 19.5038 3.36748L20.6044 2.25696C20.9557 1.91435 21.506 1.91435 21.8456 2.25696C22.1968 2.59957 22.1968 3.16664 21.8456 3.50925L19.7146 5.65942ZM9.36393 16.1031C10.1133 16.6111 11.0266 16.9183 11.9984 16.9183C14.5744 16.9183 16.6703 14.8035 16.6703 12.2044C16.6703 11.2239 16.3658 10.3024 15.8623 9.54625L14.5861 10.834C14.7968 11.2357 14.9139 11.7082 14.9139 12.2044C14.9139 13.823 13.6025 15.1461 11.9984 15.1461C11.5066 15.1461 11.0383 15.028 10.6402 14.8153L9.36393 16.1031Z" fill="black"/>
<path d="M7.31804 12.209C7.31804 12.5162 7.35316 12.8234 7.4 13.1069L3.06772 17.4781C1.89684 16.1077 0.878164 14.4537 0.0702532 12.5517C-0.0234177 12.339 -0.0234177 12.0791 0.0702532 11.8546C2.57595 5.9712 7.03702 2.46241 11.9899 2.46241H12.0016C13.6759 2.46241 15.3035 2.86409 16.8022 3.6202L12.8915 7.56611C12.6104 7.51885 12.306 7.48341 12.0016 7.48341C9.41392 7.48341 7.31804 9.59813 7.31804 12.209Z" fill="black"/>
</svg>
