<svg version="1.1" viewBox="0 0 24 24" xmlns="http://www.w3.org/2000/svg" xmlns:xlink="http://www.w3.org/1999/xlink" x="0px" y="0px">
<path fill-rule="evenodd" clip-rule="evenodd" d="M0.00488281 12.0069C0.00488281 5.3835 5.39098 0 12.0049 0C18.6188 0 24.0049 5.3835 24.0049 12.0069C24.0049 18.6165 18.6188 24 12.0049 24C5.39098 24 0.00488281 18.6165 0.00488281 12.0069ZM16.4064 13.2214C16.5338 13.0941 16.696 12.8972 16.7307 12.8509C16.9161 12.6078 17.0087 12.3068 17.0087 12.0069C17.0087 11.67 16.9045 11.3575 16.7076 11.1027C16.6914 11.0866 16.6598 11.0522 16.6186 11.0074C16.5416 10.9235 16.431 10.8032 16.3253 10.6975C15.3755 9.67873 12.8968 8.01158 11.5995 7.50217C11.4026 7.42229 10.9045 7.24747 10.6381 7.23589C10.3833 7.23589 10.14 7.29378 9.90835 7.40955C9.61878 7.57163 9.38712 7.82634 9.2597 8.12735C9.17862 8.33574 9.05121 8.96093 9.05121 8.9725C8.92379 9.65557 8.8543 10.767 8.8543 11.9942C8.8543 13.1647 8.92379 14.2287 9.02804 14.9233C9.03091 14.9262 9.04087 14.9758 9.05635 15.053C9.10341 15.2877 9.20144 15.7765 9.30603 15.9768C9.56086 16.4631 10.0589 16.7641 10.5917 16.7641H10.6381C10.9856 16.7525 11.7153 16.4515 11.7153 16.4399C12.9431 15.9305 15.3639 14.3444 16.3369 13.2909L16.4064 13.2214Z" fill="black"/>
</svg>
