<svg version="1.1" viewBox="0 0 24 24" xmlns="http://www.w3.org/2000/svg" xmlns:xlink="http://www.w3.org/1999/xlink" x="0px" y="0px">
<path d="M10.8056 7.81747C10.8056 9.44342 9.44515 10.7995 7.81143 10.7995C6.37538 10.7995 5.15096 9.75031 4.87655 8.39188C4.8312 8.18806 4.80562 7.97845 4.80562 7.76189C4.80562 6.12436 6.13585 4.79952 7.78003 4.79952C8.61724 4.79952 9.37538 5.15158 9.91841 5.71325C10.4638 6.25523 10.8056 7.00219 10.8056 7.81747Z" fill="black"/>
<path fill-rule="evenodd" clip-rule="evenodd" d="M17.2297 0C21.2821 0 24.0049 2.8344 24.0049 7.0656V16.9224C24.0049 17.0288 23.9937 17.1286 23.9825 17.2284C23.9747 17.2984 23.9668 17.3685 23.9629 17.4408C23.9603 17.4845 23.9591 17.5282 23.9578 17.5719C23.9562 17.6302 23.9545 17.6885 23.9497 17.7468C23.9473 17.7696 23.9428 17.7915 23.9383 17.8134C23.9338 17.8353 23.9293 17.8572 23.9269 17.88C23.8873 18.2568 23.8261 18.6168 23.7409 18.966C23.7207 19.0533 23.6975 19.1374 23.674 19.2223L23.6689 19.2408C23.5729 19.5792 23.4601 19.902 23.3245 20.2104C23.3007 20.2622 23.2757 20.3128 23.2506 20.3633C23.2339 20.397 23.2172 20.4307 23.2009 20.4648C23.0545 20.7588 22.8961 21.0408 22.7125 21.3024C22.6785 21.3508 22.6424 21.3962 22.6061 21.4417C22.5822 21.4717 22.5583 21.5018 22.5349 21.5328C22.3441 21.78 22.1449 22.0164 21.9193 22.2312C21.8742 22.274 21.8256 22.3132 21.7769 22.3524C21.7464 22.3769 21.716 22.4014 21.6865 22.4268C21.4549 22.626 21.2185 22.8168 20.9581 22.98C20.9012 23.0157 20.8409 23.0457 20.7807 23.0755C20.7418 23.0948 20.703 23.1141 20.6653 23.1348C20.4001 23.2812 20.1325 23.424 19.8409 23.5344C19.7707 23.5611 19.6961 23.5803 19.6212 23.5997C19.568 23.6134 19.5147 23.6272 19.4629 23.6436C19.4369 23.6516 19.411 23.6597 19.385 23.6678C19.1246 23.7488 18.865 23.8296 18.5845 23.8776C18.422 23.9061 18.2495 23.917 18.0769 23.928C18.0023 23.9327 17.9276 23.9374 17.8537 23.9436C17.7742 23.9495 17.6963 23.9591 17.6183 23.9687C17.4914 23.9844 17.3642 24 17.2297 24H6.77048C6.31928 24 5.88848 23.9544 5.47208 23.886C5.45662 23.8836 5.44234 23.8812 5.42807 23.8789C3.80447 23.5993 2.45648 22.8156 1.51208 21.6336C1.50552 21.6336 1.50295 21.6292 1.49952 21.6233C1.4973 21.6195 1.49472 21.615 1.49048 21.6108C0.541283 20.4156 0.00488281 18.8088 0.00488281 16.9224V7.0656C0.00488281 2.8344 2.73008 0 6.77048 0H17.2297ZM6.77048 1.67399C3.67808 1.67399 1.68008 3.79439 1.68008 7.06559V16.9224C1.68008 17.8404 1.85048 18.66 2.14208 19.3692C2.15467 19.3542 2.42918 19.0196 2.78732 18.5832C3.48751 17.7299 4.50733 16.4871 4.51448 16.4808C5.34488 15.5328 6.90368 14.1192 8.94968 14.9748C9.39802 15.1607 9.79654 15.4153 10.1634 15.6498C10.1991 15.6726 10.2345 15.6952 10.2697 15.7176C10.9573 16.1772 11.3617 16.3932 11.7817 16.3572C11.9557 16.3332 12.1189 16.2816 12.2737 16.1856C12.8576 15.8256 14.3716 13.6804 14.8249 13.0381C14.8914 12.9439 14.9351 12.882 14.9497 12.8628C16.2577 11.1588 18.2737 10.7028 19.9537 11.7108C20.1793 11.8452 21.7957 12.9744 22.3309 13.428V7.06559C22.3309 3.79439 20.3329 1.67399 17.2297 1.67399H6.77048Z" fill="black"/>
</svg>
