<svg version="1.1" viewBox="0 0 24 24" xmlns="http://www.w3.org/2000/svg" xmlns:xlink="http://www.w3.org/1999/xlink" x="0px" y="0px">
<path fill-rule="evenodd" clip-rule="evenodd" d="M21.0057 8.43073C21.285 8.42751 21.5891 8.424 21.8653 8.424C22.1624 8.424 22.4 8.664 22.4 8.964V18.612C22.4 21.588 20.0119 24 17.0535 24H7.60792C4.51881 24 2 21.468 2 18.348V5.412C2 2.436 4.4 0 7.35842 0H13.703C14.0119 0 14.2495 0.252 14.2495 0.552V4.416C14.2495 6.612 16.0436 8.412 18.2178 8.424C18.7257 8.424 19.1734 8.4278 19.5652 8.43112C19.8701 8.4337 20.1411 8.436 20.3802 8.436C20.5493 8.436 20.7686 8.43347 21.0057 8.43073ZM12.8594 14.076H14.9148C15.402 14.076 15.8059 13.68 15.8059 13.188C15.8059 12.684 15.402 12.288 14.9148 12.288H12.8594V10.212C12.8594 9.72002 12.4673 9.32402 11.9802 9.32402C11.4931 9.32402 11.0891 9.72002 11.0891 10.212V12.288H9.04554C8.55841 12.288 8.15445 12.684 8.15445 13.188C8.15445 13.68 8.55841 14.076 9.04554 14.076H11.0891V16.152C11.0891 16.644 11.4931 17.04 11.9802 17.04C12.4673 17.04 12.8594 16.644 12.8594 16.152V14.076Z" fill="black"/>
<path d="M21.332 6.67943C20.3554 6.68303 19.2041 6.67943 18.376 6.67103C17.0619 6.67103 15.9795 5.57783 15.9795 4.25063V1.08743C15.9795 0.57023 16.6009 0.31343 16.9562 0.68663C17.599 1.36174 18.4824 2.28967 19.3617 3.21343C20.2393 4.13525 21.1128 5.05292 21.7395 5.71103C22.0864 6.07463 21.8322 6.67823 21.332 6.67943Z" fill="black"/>
</svg>
