<svg version="1.1" viewBox="0 0 24 24" xmlns="http://www.w3.org/2000/svg" xmlns:xlink="http://www.w3.org/1999/xlink" x="0px" y="0px">
<path fill-rule="evenodd" clip-rule="evenodd" d="M17.2075 0.137939H6.80351C2.73551 0.137939 -0.000488281 2.99394 -0.000488281 7.24194V17.0459C-0.000488281 21.2819 2.73551 24.1379 6.80351 24.1379H17.2075C21.2755 24.1379 23.9995 21.2819 23.9995 17.0459V7.24194C23.9995 2.99394 21.2755 0.137939 17.2075 0.137939ZM6.80351 13.5779C6.01151 13.5779 5.36351 12.9299 5.36351 12.1379C5.36351 11.3459 6.01151 10.6991 6.80351 10.6991C7.59551 10.6991 8.24351 11.3459 8.24351 12.1379C8.24351 12.9299 7.59551 13.5779 6.80351 13.5779ZM17.3755 13.5779C16.5835 13.5779 15.9355 12.9299 15.9355 12.1379C15.9355 11.3459 16.5835 10.6991 17.3755 10.6991C18.1675 10.6991 18.8035 11.3459 18.8035 12.1379C18.8035 12.9299 18.1675 13.5779 17.3755 13.5779ZM10.62 12.138C10.62 12.93 11.268 13.578 12.06 13.578C12.852 13.578 13.5 12.93 13.5 12.138C13.5 11.346 12.852 10.6992 12.06 10.6992C11.268 10.6992 10.62 11.346 10.62 12.138Z" fill="black"/>
</svg>
