<svg version="1.1" viewBox="0 0 24 24" xmlns="http://www.w3.org/2000/svg" xmlns:xlink="http://www.w3.org/1999/xlink" x="0px" y="0px">
<path d="M12 0C5.38 0 0 5.38 0 12C0 18.62 5.38 24 12 24C18.62 24 24 18.62 24 12C24 5.38 18.62 0 12 0ZM13.4 16.84C13.4 16.94 13.36 17.04 13.3 17.1C13.22 17.16 13.14 17.2 13.02 17.2H11.06C10.96 17.2 10.86 17.16 10.78 17.1C10.7 17.04 10.68 16.94 10.68 16.84V15.1C10.68 15 10.72 14.9 10.78 14.82C10.86 14.74 10.94 14.72 11.06 14.72H13.02C13.12 14.72 13.22 14.76 13.3 14.82C13.38 14.9 13.4 14.98 13.4 15.1V16.84ZM15.66 10.76C15.44 11.14 15.12 11.54 14.7 12C14.44 12.3 14.24 12.52 14.1 12.7C13.96 12.88 13.86 13.06 13.76 13.28C13.72 13.36 13.68 13.48 13.66 13.64C13.58 13.78 13.5 13.88 13.44 13.94C13.38 14 13.28 14.02 13.18 14.02H11.02C10.94 14.02 10.88 13.98 10.82 13.94C10.76 13.88 10.74 13.82 10.74 13.74C10.74 13.6 10.74 13.5 10.76 13.44C10.82 13.04 10.98 12.68 11.22 12.36C11.46 12.04 11.78 11.68 12.2 11.28C12.5 10.98 12.74 10.74 12.88 10.54C13.04 10.34 13.12 10.14 13.12 9.94C13.14 9.66 13.06 9.42 12.84 9.26C12.62 9.08 12.36 9 12.06 9C11.34 9 10.9 9.34 10.72 10.04C10.68 10.16 10.62 10.24 10.54 10.3C10.48 10.36 10.38 10.38 10.24 10.38H8.34C8.24 10.38 8.16 10.34 8.1 10.28C8.04 10.22 8 10.1 8 9.98C8.02 9.46 8.2 8.94 8.52 8.46C8.84 7.98 9.32 7.58 9.96 7.26C10.6 6.96 11.36 6.8 12.24 6.8C13.14 6.8 13.86 6.94 14.42 7.22C14.98 7.5 15.38 7.84 15.62 8.24C15.86 8.64 15.98 9.04 15.98 9.46C16 9.96 15.88 10.38 15.66 10.76Z" fill="black"/>
</svg>
