<svg version="1.1" viewBox="0 0 24 24" xmlns="http://www.w3.org/2000/svg" xmlns:xlink="http://www.w3.org/1999/xlink" x="0px" y="0px">
<path fill-rule="evenodd" clip-rule="evenodd" d="M17.0904 0.920105L17.0924 1.82018C20.3987 2.0802 22.5829 4.33238 22.5849 7.78667L22.5969 17.8975C22.6009 21.6638 20.2347 23.982 16.4424 23.988L7.17763 24C3.40932 24.004 1.01312 21.6318 1.00712 17.8555L0.995123 7.86267C0.991123 4.38439 3.09729 2.13821 6.40356 1.83618L6.40157 0.936107C6.39957 0.408063 6.7916 0.012031 7.31364 0.012031C7.83568 0.0100309 8.22572 0.406063 8.22772 0.934106L8.22971 1.77418L15.2683 1.76417L15.2663 0.924106C15.2643 0.396062 15.6563 3.0036e-05 16.1784 3.0036e-05C16.6864 -0.00397029 17.0884 0.392062 17.0904 0.920105ZM2.82127 8.2327L20.7607 8.2087V7.78867C20.7107 5.21046 19.4166 3.85635 17.0944 3.65433L17.0964 4.5784C17.0964 5.09445 16.6944 5.50248 16.1844 5.50248C15.6623 5.50448 15.2703 5.09645 15.2703 4.58041L15.2683 3.60833L8.22971 3.61833L8.23171 4.58841C8.23171 5.10445 7.84168 5.51248 7.31964 5.51248C6.7976 5.51448 6.40557 5.10645 6.40557 4.59041L6.40356 3.66633C4.09338 3.89835 2.81527 5.25646 2.81727 7.85667L2.82127 8.2327ZM15.6843 13.6852V13.6992C15.6963 14.2512 16.1464 14.6692 16.6924 14.6572C17.2265 14.6432 17.6505 14.1872 17.6385 13.6351C17.6145 13.1071 17.1864 12.6771 16.6544 12.6771C16.1104 12.6891 15.6823 13.1331 15.6843 13.6852ZM16.6624 19.0696C16.1184 19.0576 15.6783 18.6036 15.6763 18.0515C15.6643 17.4995 16.1024 17.0434 16.6464 17.0294H16.6584C17.2145 17.0294 17.6665 17.4835 17.6665 18.0475C17.6685 18.6116 17.2185 19.0696 16.6624 19.0696ZM10.8019 13.7032C10.8259 14.2552 11.278 14.6852 11.822 14.6612C12.3561 14.6352 12.7801 14.1812 12.7561 13.6291C12.7421 13.0891 12.304 12.6691 11.772 12.6711C11.228 12.6951 10.8019 13.1511 10.8019 13.7032ZM11.828 19.0156C11.282 19.0396 10.8319 18.6096 10.8079 18.0575C10.8079 17.5055 11.234 17.0494 11.778 17.0254C12.312 17.0234 12.7501 17.4435 12.7621 17.9835C12.7881 18.5355 12.3601 18.9916 11.828 19.0156ZM5.92153 13.7452C5.94553 14.2972 6.39756 14.7292 6.94161 14.7032C7.47565 14.6792 7.89969 14.2232 7.87568 13.6712C7.86368 13.1311 7.42565 12.7111 6.8916 12.7131C6.34556 12.7371 5.91953 13.1931 5.92153 13.7452ZM6.94561 19.0216C6.39957 19.0476 5.94953 18.6156 5.92553 18.0635C5.92353 17.5115 6.35156 17.0554 6.89561 17.0314C7.42965 17.0294 7.86768 17.4495 7.87969 17.9895C7.90569 18.5415 7.47965 18.9976 6.94561 19.0216Z" fill="black"/>
</svg>
