<svg version="1.1" viewBox="0 0 24 24" xmlns="http://www.w3.org/2000/svg" xmlns:xlink="http://www.w3.org/1999/xlink" x="0px" y="0px">
<path d="M22.944 5.976L18.024 1.056C17.448 0.48 16.296 0 15.48 0H8.52C7.704 0 6.552 0.48 5.976 1.056L1.056 5.976C0.48 6.552 0 7.704 0 8.52V15.48C0 16.296 0.48 17.448 1.056 18.024L5.976 22.944C6.552 23.52 7.704 24 8.52 24H15.48C16.296 24 17.448 23.52 18.024 22.944L22.944 18.024C23.52 17.448 24 16.296 24 15.48V8.52C24 7.704 23.52 6.552 22.944 5.976ZM16.836 15.564C17.184 15.912 17.184 16.488 16.836 16.836C16.656 17.016 16.428 17.1 16.2 17.1C15.972 17.1 15.744 17.016 15.564 16.836L12 13.272L8.436 16.836C8.256 17.016 8.028 17.1 7.8 17.1C7.572 17.1 7.344 17.016 7.164 16.836C6.816 16.488 6.816 15.912 7.164 15.564L10.728 12L7.164 8.436C6.816 8.088 6.816 7.512 7.164 7.164C7.512 6.816 8.088 6.816 8.436 7.164L12 10.728L15.564 7.164C15.912 6.816 16.488 6.816 16.836 7.164C17.184 7.512 17.184 8.088 16.836 8.436L13.272 12L16.836 15.564Z" fill="black"/>
</svg>
