<svg version="1.1" viewBox="0 0 24 24" xmlns="http://www.w3.org/2000/svg" xmlns:xlink="http://www.w3.org/1999/xlink" x="0px" y="0px">
<path d="M12.0049 0C5.38088 0 0.00488281 5.376 0.00488281 12C0.00488281 18.624 5.38088 24 12.0049 24C18.6289 24 24.0049 18.624 24.0049 12C24.0049 5.376 18.6409 0 12.0049 0ZM10.5049 15.636C10.5049 16.212 10.2649 16.44 9.65288 16.44H8.09288C7.48088 16.44 7.24088 16.212 7.24088 15.636V8.364C7.24088 7.788 7.48088 7.56 8.09288 7.56H9.64088C10.2529 7.56 10.4929 7.788 10.4929 8.364V15.636H10.5049ZM16.8409 15.636C16.8409 16.212 16.6009 16.44 15.9889 16.44H14.4409C13.8289 16.44 13.5889 16.212 13.5889 15.636V8.364C13.5889 7.788 13.8289 7.56 14.4409 7.56H15.9889C16.6009 7.56 16.8409 7.788 16.8409 8.364V15.636Z" fill="black"/>
</svg>
