<svg width="24" height="24" viewBox="0 0 24 24" fill="none" xmlns="http://www.w3.org/2000/svg">
<path d="M24.0005 1.76471V22.2353C24.0005 22.7033 23.8146 23.1522 23.4836 23.4831C23.1527 23.8141 22.7038 24 22.2358 24H1.76519C1.29717 24 0.848305 23.8141 0.517359 23.4831C0.186412 23.1522 0.000488281 22.7033 0.000488281 22.2353L0.000488281 1.76471C0.000488281 1.29668 0.186412 0.847817 0.517359 0.51687C0.848305 0.185924 1.29717 0 1.76519 0L22.2358 0C22.7038 0 23.1527 0.185924 23.4836 0.51687C23.8146 0.847817 24.0005 1.29668 24.0005 1.76471V1.76471ZM7.05931 9.17647H3.5299V20.4706H7.05931V9.17647ZM7.37696 5.29412C7.37882 5.02715 7.32808 4.76242 7.22763 4.51506C7.12718 4.2677 6.97899 4.04255 6.79152 3.85246C6.60406 3.66237 6.38098 3.51107 6.13504 3.4072C5.8891 3.30332 5.62511 3.24891 5.35814 3.24706H5.29461C4.75169 3.24706 4.23101 3.46273 3.84712 3.84663C3.46322 4.23053 3.24755 4.7512 3.24755 5.29412C3.24755 5.83703 3.46322 6.35771 3.84712 6.74161C4.23101 7.1255 4.75169 7.34118 5.29461 7.34118V7.34118C5.5616 7.34774 5.82726 7.30164 6.07643 7.2055C6.3256 7.10936 6.55338 6.96506 6.74676 6.78086C6.94014 6.59666 7.09533 6.37616 7.20346 6.13196C7.31159 5.88776 7.37055 5.62464 7.37696 5.35765V5.29412ZM20.4711 13.6094C20.4711 10.2141 18.3111 8.89412 16.1652 8.89412C15.4626 8.85894 14.763 9.00859 14.1363 9.32814C13.5096 9.64769 12.9776 10.126 12.5934 10.7153H12.4946V9.17647H9.17696V20.4706H12.7064V14.4635C12.6554 13.8483 12.8491 13.2378 13.2457 12.7646C13.6422 12.2915 14.2094 11.9939 14.824 11.9365H14.9581C16.0805 11.9365 16.9134 12.6424 16.9134 14.4212V20.4706H20.4428L20.4711 13.6094Z" fill="#333333"/>
</svg>
