<svg version="1.1" viewBox="0 0 24 24" xmlns="http://www.w3.org/2000/svg" xmlns:xlink="http://www.w3.org/1999/xlink" x="0px" y="0px">
<path d="M9.03799 0.635995C8.498 2.21998 8.114 3.86397 7.814 5.50796C10.598 5.19596 13.406 5.19596 16.1899 5.50796C15.8899 3.86397 15.5059 2.23198 14.9659 0.635995C14.9494 0.569716 14.9442 0.514876 14.9387 0.45568C14.9362 0.429189 14.9337 0.401654 14.9299 0.371997C13.994 0.143999 13.01 0 12.002 0C10.982 0 10.01 0.143999 9.06199 0.371997C9.05722 0.410174 9.05624 0.444555 9.05529 0.478159C9.05384 0.529057 9.05245 0.578172 9.03799 0.635995Z" fill="black"/>
<path d="M18.2387 5.76052C19.7867 6.02452 21.3107 6.39651 22.8227 6.85251C21.6347 4.36853 19.6307 2.36454 17.1467 1.17655C17.6147 2.67654 17.9867 4.21253 18.2387 5.76052Z" fill="black"/>
<path d="M6.71826 22.7036C6.69727 22.7096 6.67625 22.7156 6.65826 22.7156C4.33028 21.5636 2.43429 19.6557 1.2703 17.3277C1.2703 17.3097 1.2763 17.2887 1.2823 17.2677C1.2883 17.2467 1.2943 17.2257 1.2943 17.2077C2.75829 17.6397 4.27028 17.9637 5.77027 18.2157C6.03427 19.7277 6.34626 21.2276 6.77826 22.6916C6.76027 22.6916 6.73925 22.6976 6.71826 22.7036Z" fill="black"/>
<path d="M22.7267 17.3397C21.5387 19.7277 19.5587 21.6596 17.1467 22.8236C17.6027 21.2996 17.9867 19.7637 18.2387 18.2157C19.7507 17.9637 21.2387 17.6397 22.7027 17.2077C22.6955 17.2366 22.7056 17.2654 22.7149 17.2917C22.721 17.3091 22.7267 17.3253 22.7267 17.3397Z" fill="black"/>
<path d="M6.78051 1.3063C6.34851 2.77029 6.03652 4.25828 5.78452 5.77027C4.23653 6.01027 2.70054 6.39426 1.17655 6.85026C2.34054 4.43828 4.27253 2.45829 6.66051 1.2703C6.67851 1.2703 6.69951 1.2793 6.72051 1.2883C6.74151 1.2973 6.76251 1.3063 6.78051 1.3063Z" fill="black"/>
<path d="M5.50796 16.1899C3.85197 15.8899 2.21998 15.5059 0.635995 14.9659C0.578176 14.9515 0.529063 14.9501 0.478169 14.9486C0.444573 14.9477 0.410163 14.9467 0.371997 14.9419C0.143999 13.994 0 13.022 0 12.002C0 10.994 0.143999 10.01 0.371997 9.07399C0.40171 9.07028 0.429124 9.06771 0.455661 9.06523C0.514858 9.05969 0.569715 9.05456 0.635995 9.03799C2.23198 8.51 3.85197 8.114 5.50796 7.814C5.20796 10.598 5.20796 13.406 5.50796 16.1899Z" fill="black"/>
<path d="M23.628 14.9419C23.856 13.994 24 13.022 24 12.002C24 10.994 23.856 10.022 23.628 9.07399C23.532 9.07399 23.46 9.06199 23.364 9.03799C21.78 8.498 20.136 8.114 18.492 7.814C18.804 10.598 18.804 13.406 18.492 16.1899C20.136 15.8899 21.768 15.4939 23.364 14.9659C23.4218 14.9515 23.4709 14.9501 23.5218 14.9486C23.5554 14.9477 23.5898 14.9467 23.628 14.9419Z" fill="black"/>
<path d="M16.1899 18.492C15.8899 20.148 15.5059 21.78 14.9659 23.364C14.9494 23.4303 14.9442 23.4851 14.9387 23.5443C14.9362 23.5708 14.9337 23.5983 14.9299 23.628C13.994 23.856 13.01 24 12.002 24C10.982 24 10.01 23.856 9.06199 23.628C9.05722 23.5898 9.05624 23.5554 9.05529 23.5218C9.05384 23.4709 9.05245 23.4218 9.03799 23.364C8.51 21.768 8.114 20.148 7.814 18.492C9.20599 18.648 10.598 18.756 12.002 18.756C13.406 18.756 14.8099 18.648 16.1899 18.492Z" fill="black"/>
<path d="M7.48394 16.5159C10.4852 16.8945 13.5146 16.8945 16.5159 16.5159C16.8945 13.5146 16.8945 10.4852 16.5159 7.48394C13.5146 7.10528 10.4852 7.10528 7.48394 7.48394C7.10528 10.4852 7.10528 13.5146 7.48394 16.5159Z" fill="black"/>
</svg>
