<svg version="1.1" viewBox="0 0 24 24" xmlns="http://www.w3.org/2000/svg" xmlns:xlink="http://www.w3.org/1999/xlink" x="0px" y="0px">
<path fill-rule="evenodd" clip-rule="evenodd" d="M8.53496 0H15.2307C20.5345 0 20.5345 2.81989 20.5345 5.30379V9.74362C20.4943 9.72351 20.4456 9.71183 20.4027 9.70151C20.3944 9.69952 20.3863 9.69757 20.3785 9.69562C19.5385 9.46763 18.5906 9.35963 17.4626 9.35963C15.6147 9.35963 14.7507 9.89961 13.8627 10.5716C13.7428 10.6556 13.6348 10.7636 13.5388 10.8596L12.3868 12.0715C12.2788 12.1915 12.0868 12.2635 11.8828 12.2635C11.6788 12.2635 11.4868 12.1915 11.3668 12.0595L10.2389 10.8716C10.1309 10.7516 10.0109 10.6436 9.8909 10.5596C9.02694 9.89961 8.15097 9.35963 6.30304 9.35963C5.17509 9.35963 4.22712 9.46763 3.38716 9.69562C3.37937 9.69757 3.37126 9.69952 3.36294 9.70152C3.32 9.71183 3.27137 9.72352 3.23116 9.74362V5.30379C3.23116 2.81989 3.23116 0 8.53496 0ZM10.0229 7.7997H13.7428C14.1987 7.7997 14.5827 7.41571 14.5827 6.95973C14.5827 6.49175 14.1987 6.11976 13.7428 6.11976H10.0229C9.56691 6.11976 9.18293 6.49175 9.18293 6.95973C9.18293 7.41571 9.56691 7.7997 10.0229 7.7997ZM9.08693 4.45183H14.6787C15.1347 4.45183 15.5067 4.06784 15.5067 3.61186C15.5067 3.14388 15.1347 2.77189 14.6787 2.77189H9.08693C8.63095 2.77189 8.25897 3.14388 8.25897 3.61186C8.25897 4.06784 8.63095 4.45183 9.08693 4.45183Z" fill="black"/>
<path d="M17.4634 11.1605C18.4233 11.1605 19.2273 11.2565 19.9113 11.4365C22.7671 12.2045 22.7671 14.4724 22.7671 16.4643V17.5802C22.7671 21.8401 20.6072 24 16.3474 24H7.41975C1 24 1 20.5921 1 17.5802V16.4643C1 14.4724 1 12.2045 3.85589 11.4365C4.53986 11.2445 5.34383 11.1605 6.30379 11.1605C7.62374 11.1605 8.11572 11.4845 8.81169 12.0005C8.84769 12.0245 8.88369 12.0605 8.91969 12.1085L10.0596 13.3084C11.0196 14.3284 12.7595 14.3284 13.7075 13.3084L14.8475 12.0965C14.8835 12.0605 14.9195 12.0245 14.9555 12.0005C15.6394 11.4845 16.1314 11.1605 17.4634 11.1605Z" fill="black"/>
</svg>
