<svg version="1.1" viewBox="0 0 24 24" xmlns="http://www.w3.org/2000/svg" xmlns:xlink="http://www.w3.org/1999/xlink" x="0px" y="0px">
<path d="M22.4878 7.8439C21.2585 2.43512 16.5405 0 12.3961 0C12.3961 0 12.3961 0 12.3844 0C8.25168 0 3.52193 2.42341 2.29266 7.83219C0.922901 13.8732 4.62241 18.9893 7.97071 22.2088C9.21168 23.4029 10.8039 24 12.3961 24C13.9883 24 15.5805 23.4029 16.8097 22.2088C20.158 18.9893 23.8575 13.8849 22.4878 7.8439ZM12.3961 13.7093C10.359 13.7093 8.70827 12.0585 8.70827 10.0215C8.70827 7.98439 10.359 6.33366 12.3961 6.33366C14.4331 6.33366 16.0839 7.98439 16.0839 10.0215C16.0839 12.0585 14.4331 13.7093 12.3961 13.7093Z" fill="black"/>
</svg>
