<svg version="1.1" viewBox="0 0 24 24" xmlns="http://www.w3.org/2000/svg" xmlns:xlink="http://www.w3.org/1999/xlink" x="0px" y="0px">
<path fill-rule="evenodd" clip-rule="evenodd" d="M21.0057 8.43073C21.285 8.42751 21.5891 8.424 21.8653 8.424C22.1624 8.424 22.4 8.664 22.4 8.964V18.612C22.4 21.588 20.0119 24 17.0653 24H7.60792C4.51881 24 2 21.468 2 18.348V5.412C2 2.436 4.4 0 7.35842 0H13.703C14.0119 0 14.2495 0.252 14.2495 0.552V4.416C14.2495 6.612 16.0436 8.412 18.2178 8.424C18.7257 8.424 19.1734 8.4278 19.5652 8.43112C19.8701 8.4337 20.1411 8.436 20.3802 8.436C20.5493 8.436 20.7686 8.43347 21.0057 8.43073ZM8.51089 17.268H14.9743C15.4614 17.268 15.8653 16.86 15.8653 16.368C15.8653 15.876 15.4614 15.48 14.9743 15.48H8.51089C8.02376 15.48 7.6198 15.876 7.6198 16.368C7.6198 16.86 8.02376 17.268 8.51089 17.268ZM12.5267 9.47999H8.51089C8.02376 9.47999 7.6198 9.88799 7.6198 10.38C7.6198 10.872 8.02376 11.268 8.51089 11.268H12.5267C13.0139 11.268 13.4178 10.872 13.4178 10.38C13.4178 9.88799 13.0139 9.47999 12.5267 9.47999Z" fill="black"/>
<path d="M21.3333 6.67921C20.3567 6.68281 19.2054 6.67921 18.3773 6.67081C17.0632 6.67081 15.9808 5.57761 15.9808 4.25041V1.08721C15.9808 0.57001 16.6022 0.31321 16.9575 0.68641C17.6002 1.36136 18.4833 2.28901 19.3624 3.21255C20.2402 4.1346 21.114 5.05254 21.7408 5.71081C22.0878 6.07441 21.8335 6.67801 21.3333 6.67921Z" fill="black"/>
</svg>
