<svg version="1.1" viewBox="0 0 24 24" xmlns="http://www.w3.org/2000/svg" xmlns:xlink="http://www.w3.org/1999/xlink" x="0px" y="0px">
<path d="M19.344 13.2578L17.88 11.7938C17.532 11.4938 17.328 11.0498 17.316 10.5578C17.292 10.0178 17.508 9.47782 17.904 9.08182L19.344 7.64182C20.592 6.39382 21.06 5.19382 20.664 4.24582C20.28 3.30982 19.092 2.79382 17.34 2.79382H4.8V1.76182C4.8 1.26982 4.392 0.861816 3.9 0.861816C3.408 0.861816 3 1.26982 3 1.76182V23.9618C3 24.4538 3.408 24.8618 3.9 24.8618C4.392 24.8618 4.8 24.4538 4.8 23.9618V18.1058H17.34C19.068 18.1058 20.232 17.5778 20.628 16.6298C21.024 15.6818 20.568 14.4938 19.344 13.2578Z" fill="black"/>
</svg>
