<svg version="1.1" viewBox="0 0 24 24" xmlns="http://www.w3.org/2000/svg" xmlns:xlink="http://www.w3.org/1999/xlink" x="0px" y="0px">
<path fill-rule="evenodd" clip-rule="evenodd" d="M21.479 11.0853C20.927 11.6373 20.2311 12.1293 19.4391 12.4293C18.1911 15.5011 15.1913 17.661 11.6635 17.661C8.13562 17.661 5.13576 15.5011 3.88782 12.4293C3.09585 12.1293 2.39989 11.6373 1.84791 11.0853C0.731966 9.84939 0 8.37346 0 6.64555C0 4.91763 1.35594 3.56169 3.08386 3.56169H3.75582C4.53579 1.96576 6.16771 0.861816 8.06362 0.861816H15.2633C17.1592 0.861816 18.7911 1.96576 19.5711 3.56169H20.243C21.971 3.56169 23.3269 4.91763 23.3269 6.64555C23.3269 8.37346 22.5949 9.84939 21.479 11.0853ZM14.3273 9.51341L15.0713 8.60145C15.5393 8.04948 15.3353 7.43751 14.6393 7.25752L13.4994 6.96953C13.3194 6.92153 13.1034 6.75354 13.0074 6.59755L12.3714 5.61359C11.9754 5.00162 11.3515 5.00162 10.9555 5.61359L10.3195 6.59755C10.2235 6.75354 10.0075 6.92153 9.82754 6.96953L8.68759 7.25752C7.99163 7.43751 7.78764 8.04948 8.25561 8.60145L8.99958 9.51341C9.11957 9.6454 9.20357 9.90939 9.19157 10.0894L9.11957 11.2653C9.07158 11.9853 9.58755 12.3573 10.2595 12.0933L11.3515 11.6613C11.5195 11.6013 11.8074 11.6013 11.9754 11.6613L13.0674 12.0933C13.7394 12.3573 14.2553 11.9853 14.2073 11.2653L14.1353 10.0894C14.1233 9.90939 14.2073 9.6454 14.3273 9.51341Z" fill="black"/>
<path d="M8.06447 20.362H10.7643V17.6142C11.0643 17.6502 11.3643 17.6622 11.6643 17.6622C11.9643 17.6622 12.2643 17.6502 12.5643 17.6142V20.362H15.2641C16.5841 20.362 17.664 21.442 17.664 22.7619V23.0619H18.864C19.3559 23.0619 19.7639 23.4699 19.7639 23.9619C19.7639 24.4538 19.3559 24.8618 18.864 24.8618H4.46463C3.97266 24.8618 3.56468 24.4538 3.56468 23.9619C3.56468 23.4699 3.97266 23.0619 4.46463 23.0619H5.66458V22.7619C5.66458 21.442 6.74453 20.362 8.06447 20.362Z" fill="black"/>
</svg>
