<svg version="1.1" viewBox="0 0 24 24" xmlns="http://www.w3.org/2000/svg" xmlns:xlink="http://www.w3.org/1999/xlink" x="0px" y="0px">
<path d="M17.0365 0H6.97548C2.6053 0 0 2.604 0 6.972V17.016C0 21.396 2.6053 24 6.97548 24H17.0245C21.3947 24 24 21.396 24 17.028V6.972C24.012 2.604 21.4067 0 17.0365 0ZM7.4197 17.724C7.39569 17.724 7.35967 17.724 7.33565 17.724C6.17107 17.616 5.07853 17.076 4.26212 16.212C2.34117 14.196 2.34117 10.92 4.26212 8.904L6.89143 6.144C7.8279 5.16 9.08853 4.608 10.4332 4.608C11.7779 4.608 13.0385 5.148 13.975 6.144C15.8959 8.16 15.8959 11.436 13.975 13.452L12.6663 14.832C12.3181 15.192 11.7539 15.204 11.3937 14.868C11.0335 14.52 11.0215 13.956 11.3577 13.596L12.6663 12.216C13.9389 10.884 13.9389 8.712 12.6663 7.392C11.4777 6.144 9.38868 6.144 8.18808 7.392L5.55877 10.152C4.28614 11.484 4.28614 13.656 5.55877 14.976C6.07503 15.528 6.77137 15.864 7.50374 15.936C7.99598 15.984 8.35616 16.428 8.30814 16.92C8.27212 17.376 7.87592 17.724 7.4197 17.724ZM19.7498 15.108L17.1205 17.868C16.1841 18.852 14.9234 19.404 13.5788 19.404C12.2341 19.404 10.9735 18.864 10.037 17.868C8.11604 15.852 8.11604 12.576 10.037 10.56L11.3457 9.18C11.6938 8.82 12.2581 8.808 12.6183 9.144C12.9785 9.492 12.9905 10.056 12.6543 10.416L11.3457 11.796C10.073 13.128 10.073 15.3 11.3457 16.62C12.5342 17.868 14.6233 17.88 15.8239 16.62L18.4532 13.86C19.7258 12.528 19.7258 10.356 18.4532 9.036C17.9369 8.484 17.2406 8.148 16.5082 8.076C16.016 8.028 15.6558 7.584 15.7038 7.092C15.7518 6.6 16.1841 6.228 16.6883 6.288C17.8529 6.408 18.9454 6.936 19.7618 7.8C21.6708 9.804 21.6708 13.092 19.7498 15.108Z" fill="black"/>
</svg>
