<svg version="1.1" viewBox="0 0 24 24" xmlns="http://www.w3.org/2000/svg" xmlns:xlink="http://www.w3.org/1999/xlink" x="0px" y="0px">
<path d="M14.8273 0.00951572C14.5596 -0.0288579 14.2907 0.0502877 14.0768 0.220571C13.8569 0.393252 13.7194 0.642681 13.6896 0.922089C13.6262 1.4869 14.0337 1.99775 14.5978 2.06131C18.4878 2.49541 21.5114 5.52573 21.9488 9.42785C22.0073 9.95069 22.4459 10.3452 22.9694 10.3452C23.0088 10.3452 23.0471 10.3428 23.0865 10.338C23.3602 10.308 23.604 10.1725 23.7761 9.95669C23.947 9.74083 24.0246 9.47222 23.9936 9.19761C23.4486 4.32895 19.6805 0.550344 14.8273 0.00951572Z" fill="black"/>
<path d="M14.902 4.18793C14.3307 4.0824 13.8061 4.44695 13.6973 5.00457C13.5886 5.56219 13.9543 6.10661 14.51 6.21574C16.1831 6.54191 17.475 7.83703 17.8024 9.51587V9.51707C17.8956 10.0003 18.3211 10.3517 18.8111 10.3517C18.8768 10.3517 18.9425 10.3457 19.0095 10.3337C19.5652 10.2222 19.9309 9.67896 19.8221 9.12014C19.3333 6.61267 17.4033 4.676 14.902 4.18793Z" fill="black"/>
<path d="M16.3654 14.8252C15.0183 15.2971 13.5007 15.8287 10.8381 13.1669C8.17565 10.5052 8.706 8.98685 9.17675 7.63917C9.55237 6.5638 9.89005 5.59708 8.53739 4.24479C8.17138 3.87889 7.842 3.53221 7.53857 3.21285C5.40602 0.96835 4.55579 0.0734928 1.28876 3.34074C1.26433 3.37113 1.22234 3.41214 1.16808 3.46514C0.389847 4.22522 -2.91337 7.45142 6.82152 17.1836C16.5536 26.913 19.7778 23.6099 20.5383 22.8307C20.5915 22.7763 20.6326 22.7342 20.6631 22.7097C23.9284 19.4453 23.0305 18.5913 20.7779 16.4487C20.4622 16.1484 20.1199 15.8228 19.7588 15.4618C18.4062 14.1102 17.4401 14.4487 16.3654 14.8252Z" fill="black"/>
</svg>
