<svg version="1.1" viewBox="0 0 24 24" xmlns="http://www.w3.org/2000/svg" xmlns:xlink="http://www.w3.org/1999/xlink" x="0px" y="0px">
<path d="M14.6548 6.71489C14.6548 9.88741 12.0587 12.4298 8.81921 12.4298C5.58084 12.4298 2.98358 9.88741 2.98358 6.71489C2.98358 3.54238 5.58084 1 8.81921 1C12.0587 1 14.6548 3.54238 14.6548 6.71489Z" fill="black"/>
<path d="M0 18.9008C0 15.964 4.06263 15.2293 8.8192 15.2293C13.6016 15.2293 17.6384 15.9893 17.6384 18.9284C17.6384 21.8652 13.5758 22.6 8.8192 22.6C4.0368 22.6 0 21.8399 0 18.9008Z" fill="black"/>
<path d="M17.0081 6.81851C17.0081 8.43409 16.5126 9.94158 15.6437 11.1938C15.5533 11.3226 15.6331 11.4962 15.7905 11.5238C16.0089 11.5595 16.2332 11.5813 16.4621 11.5859C18.74 11.6446 20.7842 10.2084 21.349 8.04543C22.1862 4.83612 19.7298 1.95453 16.6007 1.95453C16.2613 1.95453 15.9361 1.98903 15.6191 2.05227C15.5756 2.06147 15.5286 2.08217 15.5052 2.11896C15.4746 2.16611 15.4969 2.22705 15.5275 2.2673C16.468 3.55861 17.0081 5.13049 17.0081 6.81851Z" fill="black"/>
<path d="M20.7807 13.8427C22.3118 14.136 23.3181 14.7328 23.7349 15.6032C24.0884 16.3161 24.0884 17.144 23.7349 17.857C23.0974 19.2046 21.0402 19.6381 20.2406 19.7497C20.075 19.7727 19.9424 19.6347 19.96 19.4714C20.3686 15.7366 17.1196 13.9658 16.2789 13.5587C16.2437 13.5392 16.2355 13.5116 16.239 13.4932C16.2414 13.4817 16.2566 13.4633 16.2836 13.4598C18.1024 13.4253 20.0586 13.6703 20.7807 13.8427Z" fill="black"/>
</svg>
