<svg version="1.1" viewBox="0 0 24 24" xmlns="http://www.w3.org/2000/svg" xmlns:xlink="http://www.w3.org/1999/xlink" x="0px" y="0px">
<path d="M13.0797 0.137939H18.1197C22.3197 0.137939 23.9997 1.81794 23.9997 6.01794V11.0579C23.9997 14.7576 22.6868 16.4928 19.5129 16.8542C18.8489 16.9299 18.2997 16.3799 18.2997 15.7117V13.2179C18.2997 8.17794 15.9597 5.83794 10.9197 5.83794H8.426C7.75771 5.83794 7.20778 5.28876 7.28341 4.62475C7.64489 1.45084 9.38002 0.137939 13.0797 0.137939Z" fill="black"/>
<path fill-rule="evenodd" clip-rule="evenodd" d="M5.88 7.33794H10.92C15.12 7.33794 16.8 9.01794 16.8 13.2179V18.2579C16.8 22.4579 15.12 24.1379 10.92 24.1379H5.88C1.68 24.1379 0 22.4579 0 18.2579V13.2179C0 9.01794 1.68 7.33794 5.88 7.33794ZM7.896 18.5699L12.348 14.1179C12.684 13.7819 12.672 13.2299 12.336 12.8939C12 12.5579 11.46 12.5579 11.124 12.8939L7.272 16.7459L5.652 15.1259C5.316 14.7899 4.776 14.7899 4.44 15.1259C4.104 15.4619 4.104 16.0019 4.44 16.3379L6.672 18.5699C6.84 18.7379 7.056 18.8219 7.284 18.8219C7.512 18.8219 7.728 18.7379 7.896 18.5699Z" fill="black"/>
</svg>
