<svg version="1.1" viewBox="0 0 24 24" xmlns="http://www.w3.org/2000/svg" xmlns:xlink="http://www.w3.org/1999/xlink" x="0px" y="0px">
<path d="M18.0049 0H6.00488C2.69288 0 0.00488281 2.67734 0.00488281 5.97899V13.1586V14.3592C0.00488281 17.6608 2.69288 20.3382 6.00488 20.3382H7.80488C8.12888 20.3382 8.56088 20.5543 8.76488 20.8184L10.5649 23.2076C11.3569 24.2641 12.6529 24.2641 13.4449 23.2076L15.2449 20.8184C15.4729 20.5183 15.8329 20.3382 16.2049 20.3382H18.0049C21.3169 20.3382 24.0049 17.6608 24.0049 14.3592V5.97899C24.0049 2.67734 21.3169 0 18.0049 0ZM13.2049 14.1071H6.00488C5.51288 14.1071 5.10488 13.6988 5.10488 13.2066C5.10488 12.7144 5.51288 12.3062 6.00488 12.3062H13.2049C13.6969 12.3062 14.1049 12.7144 14.1049 13.2066C14.1049 13.6988 13.6969 14.1071 13.2049 14.1071ZM18.0049 8.10405H6.00488C5.51288 8.10405 5.10488 7.69585 5.10488 7.2036C5.10488 6.71136 5.51288 6.30315 6.00488 6.30315H18.0049C18.4969 6.30315 18.9049 6.71136 18.9049 7.2036C18.9049 7.69585 18.4969 8.10405 18.0049 8.10405Z" fill="black"/>
</svg>
