<svg width="25" height="24" viewBox="0 0 25 24" fill="none" xmlns="http://www.w3.org/2000/svg">
<path d="M23.9833 11.2923C23.5753 4.33243 17.2515 -1.03144 9.96765 0.168536C4.95175 0.996519 0.931851 5.06441 0.151867 10.0803C-0.304123 12.9842 0.295891 15.7322 1.60386 18.0001L0.535868 21.972C0.295873 22.872 1.12383 23.688 2.01181 23.436L5.92374 22.356C7.6997 23.4 9.77565 24 11.9956 24C18.7635 24 24.3793 18.0361 23.9833 11.2923ZM17.8635 16.4642C17.7555 16.6802 17.6235 16.8842 17.4555 17.0762C17.1555 17.4002 16.8315 17.6401 16.4715 17.7841C16.1115 17.9401 15.7155 18.0121 15.2955 18.0121C14.6835 18.0121 14.0236 17.8682 13.3396 17.5682C12.6436 17.2682 11.9596 16.8721 11.2756 16.3802C10.5797 15.8762 9.93166 15.3122 9.30767 14.7002C8.68369 14.0762 8.13167 13.4162 7.62768 12.7322C7.13569 12.0482 6.73972 11.3643 6.45173 10.6803C6.16374 9.9963 6.01976 9.33633 6.01976 8.71234C6.01976 8.30435 6.09175 7.90836 6.23574 7.54837C6.37974 7.17638 6.60776 6.84039 6.93175 6.5404C7.31574 6.1564 7.73571 5.97641 8.1797 5.97641C8.34769 5.97641 8.51566 6.0124 8.67165 6.0844C8.82765 6.1564 8.97168 6.26439 9.07968 6.42039L10.4716 8.38833C10.5796 8.54433 10.6636 8.67633 10.7116 8.80833C10.7716 8.94032 10.7956 9.06032 10.7956 9.18032C10.7956 9.32431 10.7476 9.46833 10.6637 9.61233C10.5797 9.75632 10.4716 9.9003 10.3276 10.0443L9.87163 10.5243C9.79963 10.5963 9.77568 10.6683 9.77568 10.7643C9.77568 10.8123 9.78763 10.8603 9.79963 10.9083C9.82363 10.9563 9.83568 10.9923 9.84768 11.0283C9.95568 11.2323 10.1476 11.4843 10.4116 11.7963C10.6876 12.1082 10.9757 12.4322 11.2877 12.7442C11.6117 13.0682 11.9236 13.3562 12.2476 13.6322C12.5596 13.8962 12.8236 14.0762 13.0276 14.1842C13.0636 14.1962 13.0996 14.2202 13.1356 14.2322C13.1836 14.2562 13.2316 14.2562 13.2916 14.2562C13.3996 14.2562 13.4716 14.2202 13.5436 14.1482L13.9995 13.6922C14.1555 13.5362 14.2996 13.4282 14.4316 13.3562C14.5756 13.2722 14.7076 13.2242 14.8636 13.2242C14.9836 13.2242 15.1036 13.2482 15.2355 13.3082C15.3675 13.3682 15.5115 13.4402 15.6555 13.5482L17.6475 14.9642C17.8035 15.0722 17.9115 15.2042 17.9835 15.3482C18.0435 15.5042 18.0795 15.6482 18.0795 15.8162C18.0075 16.0202 17.9595 16.2482 17.8635 16.4642Z" fill="#333333"/>
</svg>
