<svg version="1.1" viewBox="0 0 24 24" xmlns="http://www.w3.org/2000/svg" xmlns:xlink="http://www.w3.org/1999/xlink" x="0px" y="0px">
<path fill-rule="evenodd" clip-rule="evenodd" d="M6.4186 0H17.5814C20.9302 0 22.0465 1.99814 22.0465 4.46512V21.4884H23.1628C23.6205 21.4884 24 21.8679 24 22.3256C24 22.7833 23.6205 23.1628 23.1628 23.1628H0.837209C0.379535 23.1628 0 22.7833 0 22.3256C0 21.8679 0.379535 21.4884 0.837209 21.4884H1.95349V4.46512C1.95349 1.99814 3.06977 0 6.4186 0ZM6.4186 17.0233H9.76744C10.2251 17.0233 10.6047 16.6437 10.6047 16.186C10.6047 15.7284 10.2251 15.3488 9.76744 15.3488H6.4186C5.96093 15.3488 5.5814 15.7284 5.5814 16.186C5.5814 16.6437 5.96093 17.0233 6.4186 17.0233ZM6.4186 12H9.76744C10.2251 12 10.6047 11.6205 10.6047 11.1628C10.6047 10.7051 10.2251 10.3256 9.76744 10.3256H6.4186C5.96093 10.3256 5.5814 10.7051 5.5814 11.1628C5.5814 11.6205 5.96093 12 6.4186 12ZM6.4186 6.97674H9.76744C10.2251 6.97674 10.6047 6.59721 10.6047 6.13953C10.6047 5.68186 10.2251 5.30233 9.76744 5.30233H6.4186C5.96093 5.30233 5.5814 5.68186 5.5814 6.13953C5.5814 6.59721 5.96093 6.97674 6.4186 6.97674ZM14.2326 17.0233H17.5814C18.0391 17.0233 18.4186 16.6437 18.4186 16.186C18.4186 15.7284 18.0391 15.3488 17.5814 15.3488H14.2326C13.7749 15.3488 13.3953 15.7284 13.3953 16.186C13.3953 16.6437 13.7749 17.0233 14.2326 17.0233ZM14.2326 12H17.5814C18.0391 12 18.4186 11.6205 18.4186 11.1628C18.4186 10.7051 18.0391 10.3256 17.5814 10.3256H14.2326C13.7749 10.3256 13.3953 10.7051 13.3953 11.1628C13.3953 11.6205 13.7749 12 14.2326 12ZM14.2326 6.97674H17.5814C18.0391 6.97674 18.4186 6.59721 18.4186 6.13953C18.4186 5.68186 18.0391 5.30233 17.5814 5.30233H14.2326C13.7749 5.30233 13.3953 5.68186 13.3953 6.13953C13.3953 6.59721 13.7749 6.97674 14.2326 6.97674Z" fill="black"/>
</svg>
