<svg version="1.1" viewBox="0 0 24 24" xmlns="http://www.w3.org/2000/svg" xmlns:xlink="http://www.w3.org/1999/xlink" x="0px" y="0px">
<path fill-rule="evenodd" clip-rule="evenodd" d="M7.87977 0H15.2835C18.5354 0 21.1633 1.28395 21.1993 4.54782V22.7631C21.1993 22.9671 21.1513 23.1711 21.0553 23.3511C20.8993 23.6391 20.6353 23.8551 20.3113 23.9511C19.9993 24.0471 19.6513 23.9991 19.3633 23.8311L11.5876 19.9432L3.79993 23.8311C3.62114 23.9259 3.41595 23.9871 3.21195 23.9871C2.53998 23.9871 2 23.4351 2 22.7631V4.54782C2 1.28395 4.6399 0 7.87977 0ZM7.06375 9.14368H16.0994C16.6154 9.14368 17.0354 8.7225 17.0354 8.19572C17.0354 7.66774 16.6154 7.24775 16.0994 7.24775H7.06375C6.54777 7.24775 6.12778 7.66774 6.12778 8.19572C6.12778 8.7225 6.54777 9.14368 7.06375 9.14368Z" fill="black"/>
</svg>
