<svg version="1.1" viewBox="0 0 24 24" xmlns="http://www.w3.org/2000/svg" xmlns:xlink="http://www.w3.org/1999/xlink" x="0px" y="0px">
<path d="M22.56 8.42C23.352 8.42 24 7.772 24 6.98C24 4.232 21.768 2 19.02 2H4.968C2.22 2 0 4.22 0 6.968V6.98C0 7.772 0.648 8.42 1.44 8.42H22.56Z" fill="black"/>
<path fill-rule="evenodd" clip-rule="evenodd" d="M0 17.6739V11.6619C0 10.8699 0.648 10.2219 1.44 10.2219H22.56C23.352 10.2219 24 10.8699 24 11.6619V17.6619C24 20.4099 21.768 22.6419 19.02 22.6419H4.968C2.22 22.6419 0 20.4219 0 17.6739ZM4.8 18.6219H7.2C7.692 18.6219 8.1 18.2139 8.1 17.7219C8.1 17.2299 7.692 16.8219 7.2 16.8219H4.8C4.308 16.8219 3.9 17.2299 3.9 17.7219C3.9 18.2139 4.308 18.6219 4.8 18.6219ZM10.2 18.6219H15C15.492 18.6219 15.9 18.2139 15.9 17.7219C15.9 17.2299 15.492 16.8219 15 16.8219H10.2C9.708 16.8219 9.3 17.2299 9.3 17.7219C9.3 18.2139 9.708 18.6219 10.2 18.6219Z" fill="black"/>
</svg>
