<svg width="24" height="24" viewBox="0 0 24 24" fill="none" xmlns="http://www.w3.org/2000/svg">
<path d="M14.023 7.21559C17.3487 5.89493 19.1016 4.09405 19.7259 3.33767C19.87 3.15758 19.846 2.89344 19.6659 2.76137C17.5888 1.0325 14.9115 0 12.006 0C11.2617 0 10.5293 0.0600227 9.83295 0.180083C9.5328 0.228107 9.38869 0.588273 9.56878 0.840399C10.3252 1.89693 11.958 4.23809 13.4948 7.02349C13.6028 7.21559 13.8309 7.29963 14.023 7.21559Z" fill="#333333"/>
<path d="M23.5078 11.7779C22.2832 11.5618 19.1616 11.1056 15.968 11.4537C15.7759 11.4778 15.6078 11.3697 15.5238 11.1896C15.4998 11.1356 15.4788 11.0816 15.4578 11.0275C15.4368 10.9735 15.4158 10.9195 15.3918 10.8655C15.1997 10.4212 14.9956 9.96501 14.7915 9.52079C14.6834 9.30468 14.7914 9.04053 15.0076 8.94449C18.3692 7.49176 20.2421 5.61882 20.9745 4.7784C21.1546 4.57429 21.4668 4.58632 21.6349 4.80243C23.0156 6.63935 23.868 8.88446 24.0001 11.3097C24.0121 11.6098 23.772 11.8259 23.5078 11.7779Z" fill="#333333"/>
<path d="M19.2577 21.5388C21.5748 19.786 23.2317 17.2167 23.7839 14.2632C23.82 14.0591 23.6879 13.855 23.4838 13.7829C22.4993 13.5188 19.882 12.9425 16.8925 13.3027C16.6284 13.3387 16.4602 13.6148 16.5443 13.867C17.7209 17.1926 18.3332 19.99 18.5853 21.2867C18.6453 21.5868 19.0055 21.7309 19.2577 21.5388Z" fill="#333333"/>
<path d="M16.4001 23.1716C16.5802 23.0995 16.6883 22.8955 16.6523 22.7034C16.4002 21.3827 15.7278 18.1411 14.2991 14.3111C14.2271 14.095 13.9869 13.987 13.7708 14.071C8.06797 16.1841 5.48674 19.966 4.82641 21.1426C4.71835 21.3227 4.76634 21.5628 4.93442 21.6828C6.91541 23.1476 9.36467 24 12.018 24C13.5548 24 15.0435 23.7119 16.4001 23.1716Z" fill="#333333"/>
<path d="M10.8174 8.20014C6.26716 9.34071 2.24508 9.49679 0.78035 9.52081C0.504212 9.52081 0.30015 9.25667 0.372186 8.99254C1.23662 5.63085 3.54175 2.82145 6.57928 1.27268C6.75937 1.17663 6.98748 1.23664 7.10754 1.40473C7.73186 2.26916 9.4247 4.7064 11.0815 7.57584C11.2136 7.81596 11.0936 8.1281 10.8174 8.20014Z" fill="#333333"/>
<path d="M12.8344 12.102C13.0746 12.018 13.2066 11.7419 13.0985 11.5137C12.9065 11.0816 12.7024 10.6614 12.4983 10.2412C12.4142 10.0611 12.1981 9.96495 12.006 10.025C6.87945 11.5017 1.94496 11.7058 0.432199 11.6458C0.192079 11.6338 0 11.8259 0 12.066V12.2821C0 15.1516 1.02051 17.5168 2.70135 19.5818C2.88144 19.7979 3.21761 19.7859 3.37369 19.5458C4.33417 18.081 7.51577 13.8189 12.8344 12.102Z" fill="#333333"/>
</svg>
