<svg version="1.1" viewBox="0 0 24 24" xmlns="http://www.w3.org/2000/svg" xmlns:xlink="http://www.w3.org/1999/xlink" x="0px" y="0px">
<path d="M16.6 0H7C3.688 0 1 2.688 1 6V18C1 21.312 3.688 24 7 24H16.6C19.912 24 22.6 21.312 22.6 18V6C22.6 2.688 19.912 0 16.6 0ZM8.032 19.956C7.804 20.184 7.504 20.304 7.192 20.304C6.868 20.304 6.568 20.184 6.34 19.956C6.112 19.728 5.98 19.428 5.98 19.104C5.98 18.792 6.112 18.48 6.34 18.252C6.448 18.144 6.58 18.06 6.724 18C7.024 17.88 7.348 17.88 7.648 18C7.72 18.024 7.792 18.06 7.852 18.108C7.924 18.144 7.984 18.204 8.032 18.252C8.26 18.48 8.392 18.792 8.392 19.104C8.392 19.428 8.26 19.728 8.032 19.956ZM5.98 14.304C5.98 14.148 6.016 13.992 6.076 13.848C6.136 13.692 6.22 13.572 6.34 13.452C6.616 13.176 7.036 13.044 7.42 13.128C7.492 13.14 7.576 13.164 7.648 13.2C7.72 13.224 7.792 13.26 7.852 13.308C7.924 13.344 7.984 13.404 8.032 13.452C8.14 13.572 8.236 13.692 8.296 13.848C8.356 13.992 8.38 14.148 8.38 14.304C8.38 14.628 8.26 14.928 8.032 15.156C7.804 15.384 7.504 15.504 7.192 15.504C7.024 15.504 6.868 15.468 6.724 15.408C6.58 15.348 6.448 15.264 6.34 15.156C6.112 14.928 5.98 14.628 5.98 14.304ZM12.832 19.956C12.724 20.064 12.592 20.148 12.448 20.208C12.304 20.268 12.148 20.304 11.98 20.304C11.668 20.304 11.368 20.184 11.14 19.956C10.912 19.728 10.78 19.428 10.78 19.104C10.78 19.02 10.792 18.948 10.804 18.864C10.828 18.792 10.852 18.72 10.876 18.648C10.912 18.576 10.948 18.504 10.984 18.432C11.032 18.372 11.08 18.312 11.14 18.252C11.248 18.144 11.38 18.06 11.524 18C11.968 17.82 12.496 17.916 12.832 18.252C13.06 18.48 13.18 18.792 13.18 19.104C13.18 19.428 13.06 19.728 12.832 19.956ZM12.832 15.156C12.604 15.384 12.304 15.504 11.98 15.504C11.668 15.504 11.368 15.384 11.14 15.156C10.912 14.928 10.78 14.628 10.78 14.304C10.78 13.992 10.912 13.68 11.14 13.452C11.584 13.008 12.388 13.008 12.832 13.452C12.94 13.572 13.036 13.692 13.096 13.848C13.156 13.992 13.18 14.148 13.18 14.304C13.18 14.628 13.06 14.928 12.832 15.156ZM8.2 10.152C6.964 10.152 5.944 9.144 5.944 7.896V6.696C5.944 5.46 6.952 4.44 8.2 4.44H15.4C16.636 4.44 17.656 5.448 17.656 6.696V7.896C17.656 9.132 16.648 10.152 15.4 10.152H8.2ZM17.632 19.956C17.404 20.184 17.104 20.304 16.78 20.304C16.624 20.304 16.468 20.268 16.324 20.208C16.18 20.148 16.048 20.064 15.94 19.956C15.712 19.728 15.592 19.428 15.592 19.104C15.592 18.792 15.712 18.48 15.94 18.252C16.264 17.916 16.804 17.82 17.248 18C17.392 18.06 17.524 18.144 17.632 18.252C17.86 18.48 17.98 18.792 17.98 19.104C17.98 19.428 17.86 19.728 17.632 19.956ZM17.896 14.76C17.836 14.904 17.752 15.036 17.632 15.156C17.404 15.384 17.104 15.504 16.78 15.504C16.468 15.504 16.168 15.384 15.94 15.156C15.712 14.928 15.58 14.628 15.58 14.304C15.58 13.992 15.712 13.68 15.94 13.452C16.384 13.008 17.188 13.008 17.632 13.452C17.86 13.68 17.992 13.992 17.992 14.304C17.992 14.46 17.956 14.616 17.896 14.76Z" fill="black"/>
</svg>
