<svg version="1.1" viewBox="0 0 24 24" xmlns="http://www.w3.org/2000/svg" xmlns:xlink="http://www.w3.org/1999/xlink" x="0px" y="0px">
<path fill-rule="evenodd" clip-rule="evenodd" d="M10.62 0.171354L23.68 10.9114C24.14 11.2514 24.14 11.9314 23.68 12.2714L10.62 23.0314C10.06 23.4514 9.26001 23.0514 9.26001 22.3514V0.851354C9.26001 0.151354 10.06 -0.248646 10.62 0.171354ZM17.1 11.0914C17.1 11.8314 17.7 12.4514 18.46 12.4514C19.2 12.4514 19.82 11.8314 19.82 11.0914C19.82 10.3514 19.22 9.73135 18.46 9.73135C17.72 9.73135 17.1 10.3314 17.1 11.0914Z" fill="black"/>
<path d="M0.70002 5.87136L7.24002 11.2514C7.46002 11.4314 7.46002 11.7714 7.24002 11.9114L0.70002 17.2914C0.42002 17.5114 0.0200195 17.3114 0.0200195 16.9514V6.21136C0.0200195 5.87136 0.42002 5.67136 0.70002 5.87136Z" fill="black"/>
</svg>
