<svg version="1.1" viewBox="0 0 24 24" xmlns="http://www.w3.org/2000/svg" xmlns:xlink="http://www.w3.org/1999/xlink" x="0px" y="0px">
<path d="M20.2485 8.1556C20.2485 9.66271 20.6468 10.551 21.5234 11.5747C22.1877 12.3289 22.4 13.297 22.4 14.3472C22.4 15.3963 22.0553 16.3922 21.3648 17.2007C20.4608 18.17 19.1859 18.7888 17.8847 18.8964C15.9991 19.0571 14.1124 19.1925 12.2006 19.1925C10.2876 19.1925 8.40206 19.1115 6.5165 18.8964C5.21415 18.7888 3.93922 18.17 3.0364 17.2007C2.34586 16.3922 2 15.3963 2 14.3472C2 13.297 2.21348 12.3289 2.87659 11.5747C3.7806 10.551 4.1527 9.66271 4.1527 8.1556V7.64436C4.1527 5.62601 4.656 4.30622 5.69239 3.01423C7.23328 1.13004 9.70322 0 12.1469 0H12.2543C14.7504 0 17.3003 1.18442 18.8149 3.1496C19.7977 4.415 20.2485 5.67919 20.2485 7.64436V8.1556Z" fill="black"/>
<path d="M8.68841 21.673C8.68841 21.0687 9.24299 20.792 9.75582 20.6735C10.3557 20.5466 14.0111 20.5466 14.611 20.6735C15.1239 20.792 15.6784 21.0687 15.6784 21.673C15.6486 22.2483 15.3111 22.7583 14.8448 23.0823C14.2401 23.5536 13.5305 23.8521 12.7887 23.9597C12.3784 24.0129 11.9753 24.0141 11.5794 23.9597C10.8363 23.8521 10.1267 23.5536 9.52326 23.081C9.05574 22.7583 8.71823 22.2483 8.68841 21.673Z" fill="black"/>
</svg>
