<svg version="1.1" viewBox="0 0 24 24" xmlns="http://www.w3.org/2000/svg" xmlns:xlink="http://www.w3.org/1999/xlink" x="0px" y="0px">
<path fill-rule="evenodd" clip-rule="evenodd" d="M14.6845 0.63879L21.8702 5.35324C23.3817 6.34892 23.8735 8.14833 23.3937 9.69582V15.5979C23.3937 16.0897 22.9858 16.4976 22.4939 16.4976C22.0021 16.4976 21.5942 16.0897 21.5942 15.5979V11.9271L19.9508 13.0067L14.6845 16.4616C13.3889 17.3133 11.2536 17.3133 9.95806 16.4616L4.6558 13.0067L2.73643 11.7591C0.42119 10.2476 0.42119 6.85275 2.73643 5.35324L9.95806 0.63879C11.2536 -0.21293 13.3889 -0.21293 14.6845 0.63879ZM19.9527 17.3752C19.9527 16.4155 18.897 15.8397 18.0933 16.3675L15.6581 17.963C14.7104 18.5988 13.5108 18.9107 12.3112 18.9107C11.1116 18.9107 9.91198 18.5988 8.96429 17.963L6.4931 16.3555C5.70136 15.8397 4.6457 16.4155 4.6457 17.3632V18.9227C4.6457 20.4462 5.82132 22.0777 7.26085 22.5575L11.0876 23.8291C11.7474 24.057 12.839 24.057 13.5108 23.8291L17.3375 22.5575C18.7651 22.0777 19.9527 20.4462 19.9527 18.9227V17.3752Z" fill="black"/>
</svg>
