<svg version="1.1" viewBox="0 0 24 24" xmlns="http://www.w3.org/2000/svg" xmlns:xlink="http://www.w3.org/1999/xlink" x="0px" y="0px">
<path fill-rule="evenodd" clip-rule="evenodd" d="M22.4828 13.896C22.912 14.124 23.2432 14.484 23.4762 14.844C23.9299 15.588 23.8931 16.5 23.4516 17.304L22.5932 18.744C22.1394 19.512 21.2933 19.992 20.4225 19.992C19.9933 19.992 19.515 19.872 19.1226 19.632C18.8038 19.428 18.4359 19.356 18.0434 19.356C16.8293 19.356 15.8115 20.352 15.7747 21.54C15.7747 22.92 14.6464 24 13.2361 24H11.5683C10.1457 24 9.0175 22.92 9.0175 21.54C8.99298 20.352 7.97511 19.356 6.76102 19.356C6.35633 19.356 5.98842 19.428 5.68183 19.632C5.2894 19.872 4.79886 19.992 4.38191 19.992C3.49893 19.992 2.65275 19.512 2.199 18.744L1.35282 17.304C0.899075 16.524 0.874548 15.588 1.3283 14.844C1.52451 14.484 1.89242 14.124 2.30938 13.896C2.65275 13.728 2.8735 13.452 3.08198 13.128C3.69515 12.096 3.32725 10.74 2.28485 10.128C1.07076 9.444 0.678332 7.92 1.37735 6.732L2.199 5.316C2.91029 4.128 4.43096 3.708 5.65731 4.404C6.72423 4.98 8.11001 4.596 8.73544 3.576C8.93166 3.24 9.04203 2.88 9.0175 2.52C8.99298 2.052 9.12788 1.608 9.36088 1.248C9.81463 0.504 10.6363 0.024 11.5315 0H13.2607C14.1682 0 14.9898 0.504 15.4436 1.248C15.6643 1.608 15.8115 2.052 15.7747 2.52C15.7502 2.88 15.8605 3.24 16.0567 3.576C16.6822 4.596 18.068 4.98 19.1471 4.404C20.3612 3.708 21.8942 4.128 22.5932 5.316L23.4148 6.732C24.1261 7.92 23.7337 9.444 22.5073 10.128C21.4649 10.74 21.097 12.096 21.7225 13.128C21.9187 13.452 22.1394 13.728 22.4828 13.896ZM8.93169 12.012C8.93169 13.896 10.4892 15.396 12.4145 15.396C14.3399 15.396 15.8606 13.896 15.8606 12.012C15.8606 10.128 14.3399 8.61599 12.4145 8.61599C10.4892 8.61599 8.93169 10.128 8.93169 12.012Z" fill="black"/>
</svg>
