<svg version="1.1" viewBox="0 0 24 24" xmlns="http://www.w3.org/2000/svg" xmlns:xlink="http://www.w3.org/1999/xlink" x="0px" y="0px">
<path d="M14.6166 9.01124H21.595C23.2346 9.01124 24.3943 10.6109 23.8745 12.2105L20.8552 21.1284C20.5552 22.0282 19.7154 22.6281 18.7556 22.6281H11.8372C10.4576 22.6281 9.07789 22.4281 7.7582 22.0082L6.81842 21.7083C6.65845 21.6483 6.53848 21.5083 6.53848 21.3284V11.2507C6.53848 11.1107 6.59847 10.9908 6.71844 10.9108C7.49826 10.3909 10.5775 8.07146 10.9175 3.43253C10.9375 3.09261 11.0974 2.75269 11.3574 2.53274C11.8372 2.09284 12.737 1.65295 14.1367 2.41277C16.1762 3.53251 14.7566 8.27141 14.5566 8.93126C14.5566 8.97125 14.5766 9.01124 14.6166 9.01124Z" fill="black"/>
<path fill-rule="evenodd" clip-rule="evenodd" d="M0.999768 10.011H4.19902C4.75889 10.011 5.19879 10.4509 5.19879 11.0108V21.4083C5.19879 21.9682 4.75889 22.4081 4.19902 22.4081H0.999768C0.439898 22.4081 0 21.9682 0 21.4083V11.0108C0 10.4509 0.439898 10.011 0.999768 10.011ZM2.19949 19.6088C2.19949 20.0487 2.55941 20.4086 2.9993 20.4086C3.4392 20.4086 3.79912 20.0487 3.79912 19.6088C3.79912 19.1689 3.4392 18.809 2.9993 18.809C2.55941 18.809 2.19949 19.1689 2.19949 19.6088Z" fill="black"/>
</svg>
