<svg version="1.1" viewBox="0 0 24 24" xmlns="http://www.w3.org/2000/svg" xmlns:xlink="http://www.w3.org/1999/xlink" x="0px" y="0px">
<path d="M18 2H6C2.4 2 0 3.8 0 8V16.4C0 20.6 2.4 22.4 6 22.4H18C21.6 22.4 24 20.6 24 16.4V8C24 3.8 21.6 2 18 2ZM5.7 17C5.7 17.492 5.292 17.9 4.8 17.9C4.308 17.9 3.9 17.492 3.9 17V7.4C3.9 6.908 4.308 6.5 4.8 6.5C5.292 6.5 5.7 6.908 5.7 7.4V17ZM9.3 17C9.3 17.492 8.892 17.9 8.4 17.9C7.908 17.9 7.5 17.492 7.5 17V15.8C7.5 15.308 7.908 14.9 8.4 14.9C8.892 14.9 9.3 15.308 9.3 15.8V17ZM9.3 12.2C9.3 12.692 8.892 13.1 8.4 13.1C7.908 13.1 7.5 12.692 7.5 12.2V7.4C7.5 6.908 7.908 6.5 8.4 6.5C8.892 6.5 9.3 6.908 9.3 7.4V12.2ZM12.9 17C12.9 17.492 12.492 17.9 12 17.9C11.508 17.9 11.1 17.492 11.1 17V7.4C11.1 6.908 11.508 6.5 12 6.5C12.492 6.5 12.9 6.908 12.9 7.4V17ZM16.5 17C16.5 17.492 16.092 17.9 15.6 17.9C15.108 17.9 14.7 17.492 14.7 17V12.2C14.7 11.708 15.108 11.3 15.6 11.3C16.092 11.3 16.5 11.708 16.5 12.2V17ZM16.5 8.6C16.5 9.092 16.092 9.5 15.6 9.5C15.108 9.5 14.7 9.092 14.7 8.6V7.4C14.7 6.908 15.108 6.5 15.6 6.5C16.092 6.5 16.5 6.908 16.5 7.4V8.6ZM20.1 17C20.1 17.492 19.692 17.9 19.2 17.9C18.708 17.9 18.3 17.492 18.3 17V7.4C18.3 6.908 18.708 6.5 19.2 6.5C19.692 6.5 20.1 6.908 20.1 7.4V17Z" fill="black"/>
</svg>
